ISO-10303-21;
HEADER;
/* Generated by software containing ST-Developer
 * from STEP Tools, Inc. (www.steptools.com) 
 */

FILE_DESCRIPTION(
/* description */ ('KiCad electronic assembly'),
/* implementation_level */ '2;1');

FILE_NAME(
/* name */ 'Bottom.step',
/* time_stamp */ '2026-08-22T15:20:48+03:00',
/* author */ (''),
/* organization */ (''),
/* preprocessor_version */ 'ST-DEVELOPER v20.1',
/* originating_system */ 'Autodesk Translation Framework v15.8.0.0',
/* authorisation */ '');

FILE_SCHEMA (('AUTOMOTIVE_DESIGN { 1 0 10303 214 3 1 1 }'));
ENDSEC;

DATA;
#10=MECHANICAL_DESIGN_GEOMETRIC_PRESENTATION_REPRESENTATION('',(#13),#1063);
#11=SHAPE_REPRESENTATION_RELATIONSHIP('SRR','None',#1070,#12);
#12=ADVANCED_BREP_SHAPE_REPRESENTATION('',(#14),#1062);
#13=STYLED_ITEM('',(#1079),#14);
#14=MANIFOLD_SOLID_BREP('Body19',#619);
#15=FACE_BOUND('',#82,.T.);
#16=FACE_BOUND('',#86,.T.);
#17=FACE_BOUND('',#90,.T.);
#18=FACE_BOUND('',#94,.T.);
#19=FACE_BOUND('',#107,.T.);
#20=FACE_BOUND('',#108,.T.);
#21=FACE_BOUND('',#109,.T.);
#22=FACE_BOUND('',#110,.T.);
#23=FACE_BOUND('',#121,.T.);
#24=FACE_BOUND('',#122,.T.);
#25=FACE_BOUND('',#123,.T.);
#26=FACE_BOUND('',#124,.T.);
#27=PLANE('',#639);
#28=PLANE('',#646);
#29=PLANE('',#653);
#30=PLANE('',#660);
#31=PLANE('',#661);
#32=PLANE('',#662);
#33=PLANE('',#663);
#34=PLANE('',#664);
#35=PLANE('',#665);
#36=PLANE('',#672);
#37=PLANE('',#676);
#38=PLANE('',#680);
#39=PLANE('',#681);
#40=PLANE('',#685);
#41=PLANE('',#689);
#42=PLANE('',#693);
#43=PLANE('',#697);
#44=PLANE('',#698);
#45=FACE_OUTER_BOUND('',#79,.T.);
#46=FACE_OUTER_BOUND('',#80,.T.);
#47=FACE_OUTER_BOUND('',#81,.T.);
#48=FACE_OUTER_BOUND('',#83,.T.);
#49=FACE_OUTER_BOUND('',#84,.T.);
#50=FACE_OUTER_BOUND('',#85,.T.);
#51=FACE_OUTER_BOUND('',#87,.T.);
#52=FACE_OUTER_BOUND('',#88,.T.);
#53=FACE_OUTER_BOUND('',#89,.T.);
#54=FACE_OUTER_BOUND('',#91,.T.);
#55=FACE_OUTER_BOUND('',#92,.T.);
#56=FACE_OUTER_BOUND('',#93,.T.);
#57=FACE_OUTER_BOUND('',#95,.T.);
#58=FACE_OUTER_BOUND('',#96,.T.);
#59=FACE_OUTER_BOUND('',#97,.T.);
#60=FACE_OUTER_BOUND('',#98,.T.);
#61=FACE_OUTER_BOUND('',#99,.T.);
#62=FACE_OUTER_BOUND('',#100,.T.);
#63=FACE_OUTER_BOUND('',#101,.T.);
#64=FACE_OUTER_BOUND('',#102,.T.);
#65=FACE_OUTER_BOUND('',#103,.T.);
#66=FACE_OUTER_BOUND('',#104,.T.);
#67=FACE_OUTER_BOUND('',#105,.T.);
#68=FACE_OUTER_BOUND('',#106,.T.);
#69=FACE_OUTER_BOUND('',#111,.T.);
#70=FACE_OUTER_BOUND('',#112,.T.);
#71=FACE_OUTER_BOUND('',#113,.T.);
#72=FACE_OUTER_BOUND('',#114,.T.);
#73=FACE_OUTER_BOUND('',#115,.T.);
#74=FACE_OUTER_BOUND('',#116,.T.);
#75=FACE_OUTER_BOUND('',#117,.T.);
#76=FACE_OUTER_BOUND('',#118,.T.);
#77=FACE_OUTER_BOUND('',#119,.T.);
#78=FACE_OUTER_BOUND('',#120,.T.);
#79=EDGE_LOOP('',(#401,#402,#403,#404));
#80=EDGE_LOOP('',(#405,#406,#407,#408));
#81=EDGE_LOOP('',(#409));
#82=EDGE_LOOP('',(#410));
#83=EDGE_LOOP('',(#411,#412,#413,#414));
#84=EDGE_LOOP('',(#415,#416,#417,#418));
#85=EDGE_LOOP('',(#419));
#86=EDGE_LOOP('',(#420));
#87=EDGE_LOOP('',(#421,#422,#423,#424));
#88=EDGE_LOOP('',(#425,#426,#427,#428));
#89=EDGE_LOOP('',(#429));
#90=EDGE_LOOP('',(#430));
#91=EDGE_LOOP('',(#431,#432,#433,#434));
#92=EDGE_LOOP('',(#435,#436,#437,#438));
#93=EDGE_LOOP('',(#439));
#94=EDGE_LOOP('',(#440));
#95=EDGE_LOOP('',(#441,#442,#443,#444));
#96=EDGE_LOOP('',(#445,#446,#447,#448));
#97=EDGE_LOOP('',(#449,#450,#451,#452));
#98=EDGE_LOOP('',(#453,#454,#455,#456,#457,#458,#459,#460));
#99=EDGE_LOOP('',(#461,#462,#463,#464));
#100=EDGE_LOOP('',(#465,#466,#467,#468));
#101=EDGE_LOOP('',(#469,#470,#471,#472));
#102=EDGE_LOOP('',(#473,#474,#475,#476));
#103=EDGE_LOOP('',(#477,#478,#479,#480));
#104=EDGE_LOOP('',(#481,#482,#483,#484));
#105=EDGE_LOOP('',(#485,#486,#487,#488));
#106=EDGE_LOOP('',(#489,#490,#491,#492,#493,#494,#495,#496));
#107=EDGE_LOOP('',(#497));
#108=EDGE_LOOP('',(#498));
#109=EDGE_LOOP('',(#499));
#110=EDGE_LOOP('',(#500));
#111=EDGE_LOOP('',(#501,#502,#503,#504));
#112=EDGE_LOOP('',(#505,#506,#507,#508));
#113=EDGE_LOOP('',(#509,#510,#511,#512,#513,#514,#515,#516));
#114=EDGE_LOOP('',(#517,#518,#519,#520));
#115=EDGE_LOOP('',(#521,#522,#523,#524));
#116=EDGE_LOOP('',(#525,#526,#527,#528));
#117=EDGE_LOOP('',(#529,#530,#531,#532));
#118=EDGE_LOOP('',(#533,#534,#535,#536));
#119=EDGE_LOOP('',(#537,#538,#539,#540,#541,#542,#543,#544,#545,#546,#547,
#548,#549,#550,#551,#552,#553,#554,#555,#556));
#120=EDGE_LOOP('',(#557,#558,#559,#560,#561,#562,#563,#564));
#121=EDGE_LOOP('',(#565));
#122=EDGE_LOOP('',(#566));
#123=EDGE_LOOP('',(#567));
#124=EDGE_LOOP('',(#568));
#125=LINE('',#890,#177);
#126=LINE('',#896,#178);
#127=LINE('',#903,#179);
#128=LINE('',#909,#180);
#129=LINE('',#916,#181);
#130=LINE('',#922,#182);
#131=LINE('',#929,#183);
#132=LINE('',#935,#184);
#133=LINE('',#941,#185);
#134=LINE('',#943,#186);
#135=LINE('',#945,#187);
#136=LINE('',#946,#188);
#137=LINE('',#949,#189);
#138=LINE('',#951,#190);
#139=LINE('',#952,#191);
#140=LINE('',#955,#192);
#141=LINE('',#957,#193);
#142=LINE('',#958,#194);
#143=LINE('',#961,#195);
#144=LINE('',#963,#196);
#145=LINE('',#965,#197);
#146=LINE('',#967,#198);
#147=LINE('',#968,#199);
#148=LINE('',#972,#200);
#149=LINE('',#974,#201);
#150=LINE('',#976,#202);
#151=LINE('',#977,#203);
#152=LINE('',#985,#204);
#153=LINE('',#989,#205);
#154=LINE('',#991,#206);
#155=LINE('',#992,#207);
#156=LINE('',#997,#208);
#157=LINE('',#1001,#209);
#158=LINE('',#1003,#210);
#159=LINE('',#1004,#211);
#160=LINE('',#1012,#212);
#161=LINE('',#1014,#213);
#162=LINE('',#1016,#214);
#163=LINE('',#1017,#215);
#164=LINE('',#1023,#216);
#165=LINE('',#1026,#217);
#166=LINE('',#1028,#218);
#167=LINE('',#1029,#219);
#168=LINE('',#1030,#220);
#169=LINE('',#1036,#221);
#170=LINE('',#1039,#222);
#171=LINE('',#1041,#223);
#172=LINE('',#1042,#224);
#173=LINE('',#1048,#225);
#174=LINE('',#1051,#226);
#175=LINE('',#1053,#227);
#176=LINE('',#1054,#228);
#177=VECTOR('',#705,1.09999999999999);
#178=VECTOR('',#712,2.19999999999999);
#179=VECTOR('',#721,1.09999999999999);
#180=VECTOR('',#728,2.19999999999999);
#181=VECTOR('',#737,1.09999999999999);
#182=VECTOR('',#744,2.19999999999999);
#183=VECTOR('',#753,1.09999999999999);
#184=VECTOR('',#760,2.19999999999999);
#185=VECTOR('',#767,10.);
#186=VECTOR('',#768,10.);
#187=VECTOR('',#769,10.);
#188=VECTOR('',#770,10.);
#189=VECTOR('',#773,10.);
#190=VECTOR('',#774,10.);
#191=VECTOR('',#775,10.);
#192=VECTOR('',#778,10.);
#193=VECTOR('',#779,10.);
#194=VECTOR('',#780,10.);
#195=VECTOR('',#783,10.);
#196=VECTOR('',#784,10.);
#197=VECTOR('',#785,10.);
#198=VECTOR('',#786,10.);
#199=VECTOR('',#787,10.);
#200=VECTOR('',#790,10.);
#201=VECTOR('',#791,10.);
#202=VECTOR('',#792,10.);
#203=VECTOR('',#793,10.);
#204=VECTOR('',#804,10.);
#205=VECTOR('',#809,10.);
#206=VECTOR('',#810,10.);
#207=VECTOR('',#811,10.);
#208=VECTOR('',#816,10.);
#209=VECTOR('',#821,10.);
#210=VECTOR('',#822,10.);
#211=VECTOR('',#823,10.);
#212=VECTOR('',#834,10.);
#213=VECTOR('',#835,10.);
#214=VECTOR('',#836,10.);
#215=VECTOR('',#837,10.);
#216=VECTOR('',#844,10.);
#217=VECTOR('',#847,10.);
#218=VECTOR('',#848,10.);
#219=VECTOR('',#849,10.);
#220=VECTOR('',#850,10.);
#221=VECTOR('',#857,10.);
#222=VECTOR('',#860,10.);
#223=VECTOR('',#861,10.);
#224=VECTOR('',#862,10.);
#225=VECTOR('',#869,10.);
#226=VECTOR('',#872,10.);
#227=VECTOR('',#873,10.);
#228=VECTOR('',#874,10.);
#229=CIRCLE('',#634,1.09999999999999);
#230=CIRCLE('',#635,1.09999999999999);
#231=CIRCLE('',#637,2.19999999999999);
#232=CIRCLE('',#638,2.19999999999999);
#233=CIRCLE('',#641,1.09999999999999);
#234=CIRCLE('',#642,1.09999999999999);
#235=CIRCLE('',#644,2.19999999999999);
#236=CIRCLE('',#645,2.19999999999999);
#237=CIRCLE('',#648,1.09999999999999);
#238=CIRCLE('',#649,1.09999999999999);
#239=CIRCLE('',#651,2.19999999999999);
#240=CIRCLE('',#652,2.19999999999999);
#241=CIRCLE('',#655,1.09999999999999);
#242=CIRCLE('',#656,1.09999999999999);
#243=CIRCLE('',#658,2.19999999999999);
#244=CIRCLE('',#659,2.19999999999999);
#245=CIRCLE('',#667,0.499999999999998);
#246=CIRCLE('',#668,0.499999999999998);
#247=CIRCLE('',#670,0.500000000000007);
#248=CIRCLE('',#671,0.500000000000007);
#249=CIRCLE('',#674,0.500000000000007);
#250=CIRCLE('',#675,0.500000000000007);
#251=CIRCLE('',#678,0.500000000000007);
#252=CIRCLE('',#679,0.500000000000007);
#253=CIRCLE('',#683,3.);
#254=CIRCLE('',#684,3.);
#255=CIRCLE('',#687,3.00000000000001);
#256=CIRCLE('',#688,3.00000000000001);
#257=CIRCLE('',#691,3.00000000000001);
#258=CIRCLE('',#692,3.00000000000001);
#259=CIRCLE('',#695,3.00000000000001);
#260=CIRCLE('',#696,3.00000000000001);
#261=VERTEX_POINT('',#887);
#262=VERTEX_POINT('',#889);
#263=VERTEX_POINT('',#893);
#264=VERTEX_POINT('',#895);
#265=VERTEX_POINT('',#900);
#266=VERTEX_POINT('',#902);
#267=VERTEX_POINT('',#906);
#268=VERTEX_POINT('',#908);
#269=VERTEX_POINT('',#913);
#270=VERTEX_POINT('',#915);
#271=VERTEX_POINT('',#919);
#272=VERTEX_POINT('',#921);
#273=VERTEX_POINT('',#926);
#274=VERTEX_POINT('',#928);
#275=VERTEX_POINT('',#932);
#276=VERTEX_POINT('',#934);
#277=VERTEX_POINT('',#939);
#278=VERTEX_POINT('',#940);
#279=VERTEX_POINT('',#942);
#280=VERTEX_POINT('',#944);
#281=VERTEX_POINT('',#948);
#282=VERTEX_POINT('',#950);
#283=VERTEX_POINT('',#954);
#284=VERTEX_POINT('',#956);
#285=VERTEX_POINT('',#960);
#286=VERTEX_POINT('',#962);
#287=VERTEX_POINT('',#964);
#288=VERTEX_POINT('',#966);
#289=VERTEX_POINT('',#970);
#290=VERTEX_POINT('',#971);
#291=VERTEX_POINT('',#973);
#292=VERTEX_POINT('',#975);
#293=VERTEX_POINT('',#982);
#294=VERTEX_POINT('',#984);
#295=VERTEX_POINT('',#988);
#296=VERTEX_POINT('',#990);
#297=VERTEX_POINT('',#994);
#298=VERTEX_POINT('',#996);
#299=VERTEX_POINT('',#1000);
#300=VERTEX_POINT('',#1002);
#301=VERTEX_POINT('',#1010);
#302=VERTEX_POINT('',#1011);
#303=VERTEX_POINT('',#1013);
#304=VERTEX_POINT('',#1015);
#305=VERTEX_POINT('',#1019);
#306=VERTEX_POINT('',#1021);
#307=VERTEX_POINT('',#1025);
#308=VERTEX_POINT('',#1027);
#309=VERTEX_POINT('',#1032);
#310=VERTEX_POINT('',#1034);
#311=VERTEX_POINT('',#1038);
#312=VERTEX_POINT('',#1040);
#313=VERTEX_POINT('',#1044);
#314=VERTEX_POINT('',#1046);
#315=VERTEX_POINT('',#1050);
#316=VERTEX_POINT('',#1052);
#317=EDGE_CURVE('',#261,#261,#229,.T.);
#318=EDGE_CURVE('',#261,#262,#125,.T.);
#319=EDGE_CURVE('',#262,#262,#230,.T.);
#320=EDGE_CURVE('',#263,#263,#231,.T.);
#321=EDGE_CURVE('',#263,#264,#126,.T.);
#322=EDGE_CURVE('',#264,#264,#232,.T.);
#323=EDGE_CURVE('',#265,#265,#233,.T.);
#324=EDGE_CURVE('',#265,#266,#127,.T.);
#325=EDGE_CURVE('',#266,#266,#234,.T.);
#326=EDGE_CURVE('',#267,#267,#235,.T.);
#327=EDGE_CURVE('',#267,#268,#128,.T.);
#328=EDGE_CURVE('',#268,#268,#236,.T.);
#329=EDGE_CURVE('',#269,#269,#237,.T.);
#330=EDGE_CURVE('',#269,#270,#129,.T.);
#331=EDGE_CURVE('',#270,#270,#238,.T.);
#332=EDGE_CURVE('',#271,#271,#239,.T.);
#333=EDGE_CURVE('',#271,#272,#130,.T.);
#334=EDGE_CURVE('',#272,#272,#240,.T.);
#335=EDGE_CURVE('',#273,#273,#241,.T.);
#336=EDGE_CURVE('',#273,#274,#131,.T.);
#337=EDGE_CURVE('',#274,#274,#242,.T.);
#338=EDGE_CURVE('',#275,#275,#243,.T.);
#339=EDGE_CURVE('',#275,#276,#132,.T.);
#340=EDGE_CURVE('',#276,#276,#244,.T.);
#341=EDGE_CURVE('',#277,#278,#133,.T.);
#342=EDGE_CURVE('',#279,#277,#134,.T.);
#343=EDGE_CURVE('',#280,#279,#135,.T.);
#344=EDGE_CURVE('',#278,#280,#136,.T.);
#345=EDGE_CURVE('',#281,#277,#137,.T.);
#346=EDGE_CURVE('',#281,#282,#138,.T.);
#347=EDGE_CURVE('',#279,#282,#139,.T.);
#348=EDGE_CURVE('',#283,#281,#140,.T.);
#349=EDGE_CURVE('',#284,#283,#141,.T.);
#350=EDGE_CURVE('',#282,#284,#142,.T.);
#351=EDGE_CURVE('',#285,#278,#143,.T.);
#352=EDGE_CURVE('',#286,#285,#144,.T.);
#353=EDGE_CURVE('',#287,#286,#145,.T.);
#354=EDGE_CURVE('',#287,#288,#146,.T.);
#355=EDGE_CURVE('',#283,#288,#147,.T.);
#356=EDGE_CURVE('',#289,#290,#148,.T.);
#357=EDGE_CURVE('',#289,#291,#149,.T.);
#358=EDGE_CURVE('',#292,#291,#150,.T.);
#359=EDGE_CURVE('',#290,#292,#151,.T.);
#360=EDGE_CURVE('',#286,#289,#245,.T.);
#361=EDGE_CURVE('',#291,#285,#246,.T.);
#362=EDGE_CURVE('',#293,#287,#247,.T.);
#363=EDGE_CURVE('',#293,#294,#152,.T.);
#364=EDGE_CURVE('',#288,#294,#248,.T.);
#365=EDGE_CURVE('',#295,#293,#153,.T.);
#366=EDGE_CURVE('',#295,#296,#154,.T.);
#367=EDGE_CURVE('',#294,#296,#155,.T.);
#368=EDGE_CURVE('',#297,#295,#249,.T.);
#369=EDGE_CURVE('',#297,#298,#156,.T.);
#370=EDGE_CURVE('',#296,#298,#250,.T.);
#371=EDGE_CURVE('',#299,#297,#157,.T.);
#372=EDGE_CURVE('',#299,#300,#158,.T.);
#373=EDGE_CURVE('',#298,#300,#159,.T.);
#374=EDGE_CURVE('',#290,#299,#251,.T.);
#375=EDGE_CURVE('',#300,#292,#252,.T.);
#376=EDGE_CURVE('',#301,#302,#160,.T.);
#377=EDGE_CURVE('',#302,#303,#161,.T.);
#378=EDGE_CURVE('',#304,#303,#162,.T.);
#379=EDGE_CURVE('',#301,#304,#163,.T.);
#380=EDGE_CURVE('',#305,#301,#253,.T.);
#381=EDGE_CURVE('',#306,#304,#254,.T.);
#382=EDGE_CURVE('',#305,#306,#164,.T.);
#383=EDGE_CURVE('',#307,#284,#165,.T.);
#384=EDGE_CURVE('',#308,#307,#166,.T.);
#385=EDGE_CURVE('',#308,#305,#167,.T.);
#386=EDGE_CURVE('',#280,#306,#168,.T.);
#387=EDGE_CURVE('',#309,#308,#255,.T.);
#388=EDGE_CURVE('',#310,#307,#256,.T.);
#389=EDGE_CURVE('',#309,#310,#169,.T.);
#390=EDGE_CURVE('',#311,#309,#170,.T.);
#391=EDGE_CURVE('',#312,#310,#171,.T.);
#392=EDGE_CURVE('',#311,#312,#172,.T.);
#393=EDGE_CURVE('',#313,#311,#257,.T.);
#394=EDGE_CURVE('',#314,#312,#258,.T.);
#395=EDGE_CURVE('',#313,#314,#173,.T.);
#396=EDGE_CURVE('',#315,#313,#174,.T.);
#397=EDGE_CURVE('',#316,#314,#175,.T.);
#398=EDGE_CURVE('',#315,#316,#176,.T.);
#399=EDGE_CURVE('',#302,#315,#259,.T.);
#400=EDGE_CURVE('',#303,#316,#260,.T.);
#401=ORIENTED_EDGE('',*,*,#317,.F.);
#402=ORIENTED_EDGE('',*,*,#318,.T.);
#403=ORIENTED_EDGE('',*,*,#319,.F.);
#404=ORIENTED_EDGE('',*,*,#318,.F.);
#405=ORIENTED_EDGE('',*,*,#320,.F.);
#406=ORIENTED_EDGE('',*,*,#321,.T.);
#407=ORIENTED_EDGE('',*,*,#322,.F.);
#408=ORIENTED_EDGE('',*,*,#321,.F.);
#409=ORIENTED_EDGE('',*,*,#320,.T.);
#410=ORIENTED_EDGE('',*,*,#319,.T.);
#411=ORIENTED_EDGE('',*,*,#323,.F.);
#412=ORIENTED_EDGE('',*,*,#324,.T.);
#413=ORIENTED_EDGE('',*,*,#325,.F.);
#414=ORIENTED_EDGE('',*,*,#324,.F.);
#415=ORIENTED_EDGE('',*,*,#326,.F.);
#416=ORIENTED_EDGE('',*,*,#327,.T.);
#417=ORIENTED_EDGE('',*,*,#328,.F.);
#418=ORIENTED_EDGE('',*,*,#327,.F.);
#419=ORIENTED_EDGE('',*,*,#326,.T.);
#420=ORIENTED_EDGE('',*,*,#325,.T.);
#421=ORIENTED_EDGE('',*,*,#329,.F.);
#422=ORIENTED_EDGE('',*,*,#330,.T.);
#423=ORIENTED_EDGE('',*,*,#331,.F.);
#424=ORIENTED_EDGE('',*,*,#330,.F.);
#425=ORIENTED_EDGE('',*,*,#332,.F.);
#426=ORIENTED_EDGE('',*,*,#333,.T.);
#427=ORIENTED_EDGE('',*,*,#334,.F.);
#428=ORIENTED_EDGE('',*,*,#333,.F.);
#429=ORIENTED_EDGE('',*,*,#332,.T.);
#430=ORIENTED_EDGE('',*,*,#331,.T.);
#431=ORIENTED_EDGE('',*,*,#335,.F.);
#432=ORIENTED_EDGE('',*,*,#336,.T.);
#433=ORIENTED_EDGE('',*,*,#337,.F.);
#434=ORIENTED_EDGE('',*,*,#336,.F.);
#435=ORIENTED_EDGE('',*,*,#338,.F.);
#436=ORIENTED_EDGE('',*,*,#339,.T.);
#437=ORIENTED_EDGE('',*,*,#340,.F.);
#438=ORIENTED_EDGE('',*,*,#339,.F.);
#439=ORIENTED_EDGE('',*,*,#338,.T.);
#440=ORIENTED_EDGE('',*,*,#337,.T.);
#441=ORIENTED_EDGE('',*,*,#341,.F.);
#442=ORIENTED_EDGE('',*,*,#342,.F.);
#443=ORIENTED_EDGE('',*,*,#343,.F.);
#444=ORIENTED_EDGE('',*,*,#344,.F.);
#445=ORIENTED_EDGE('',*,*,#345,.F.);
#446=ORIENTED_EDGE('',*,*,#346,.T.);
#447=ORIENTED_EDGE('',*,*,#347,.F.);
#448=ORIENTED_EDGE('',*,*,#342,.T.);
#449=ORIENTED_EDGE('',*,*,#348,.F.);
#450=ORIENTED_EDGE('',*,*,#349,.F.);
#451=ORIENTED_EDGE('',*,*,#350,.F.);
#452=ORIENTED_EDGE('',*,*,#346,.F.);
#453=ORIENTED_EDGE('',*,*,#348,.T.);
#454=ORIENTED_EDGE('',*,*,#345,.T.);
#455=ORIENTED_EDGE('',*,*,#341,.T.);
#456=ORIENTED_EDGE('',*,*,#351,.F.);
#457=ORIENTED_EDGE('',*,*,#352,.F.);
#458=ORIENTED_EDGE('',*,*,#353,.F.);
#459=ORIENTED_EDGE('',*,*,#354,.T.);
#460=ORIENTED_EDGE('',*,*,#355,.F.);
#461=ORIENTED_EDGE('',*,*,#356,.F.);
#462=ORIENTED_EDGE('',*,*,#357,.T.);
#463=ORIENTED_EDGE('',*,*,#358,.F.);
#464=ORIENTED_EDGE('',*,*,#359,.F.);
#465=ORIENTED_EDGE('',*,*,#360,.F.);
#466=ORIENTED_EDGE('',*,*,#352,.T.);
#467=ORIENTED_EDGE('',*,*,#361,.F.);
#468=ORIENTED_EDGE('',*,*,#357,.F.);
#469=ORIENTED_EDGE('',*,*,#362,.F.);
#470=ORIENTED_EDGE('',*,*,#363,.T.);
#471=ORIENTED_EDGE('',*,*,#364,.F.);
#472=ORIENTED_EDGE('',*,*,#354,.F.);
#473=ORIENTED_EDGE('',*,*,#365,.F.);
#474=ORIENTED_EDGE('',*,*,#366,.T.);
#475=ORIENTED_EDGE('',*,*,#367,.F.);
#476=ORIENTED_EDGE('',*,*,#363,.F.);
#477=ORIENTED_EDGE('',*,*,#368,.F.);
#478=ORIENTED_EDGE('',*,*,#369,.T.);
#479=ORIENTED_EDGE('',*,*,#370,.F.);
#480=ORIENTED_EDGE('',*,*,#366,.F.);
#481=ORIENTED_EDGE('',*,*,#371,.F.);
#482=ORIENTED_EDGE('',*,*,#372,.T.);
#483=ORIENTED_EDGE('',*,*,#373,.F.);
#484=ORIENTED_EDGE('',*,*,#369,.F.);
#485=ORIENTED_EDGE('',*,*,#374,.F.);
#486=ORIENTED_EDGE('',*,*,#359,.T.);
#487=ORIENTED_EDGE('',*,*,#375,.F.);
#488=ORIENTED_EDGE('',*,*,#372,.F.);
#489=ORIENTED_EDGE('',*,*,#374,.T.);
#490=ORIENTED_EDGE('',*,*,#371,.T.);
#491=ORIENTED_EDGE('',*,*,#368,.T.);
#492=ORIENTED_EDGE('',*,*,#365,.T.);
#493=ORIENTED_EDGE('',*,*,#362,.T.);
#494=ORIENTED_EDGE('',*,*,#353,.T.);
#495=ORIENTED_EDGE('',*,*,#360,.T.);
#496=ORIENTED_EDGE('',*,*,#356,.T.);
#497=ORIENTED_EDGE('',*,*,#322,.T.);
#498=ORIENTED_EDGE('',*,*,#328,.T.);
#499=ORIENTED_EDGE('',*,*,#334,.T.);
#500=ORIENTED_EDGE('',*,*,#340,.T.);
#501=ORIENTED_EDGE('',*,*,#376,.T.);
#502=ORIENTED_EDGE('',*,*,#377,.T.);
#503=ORIENTED_EDGE('',*,*,#378,.F.);
#504=ORIENTED_EDGE('',*,*,#379,.F.);
#505=ORIENTED_EDGE('',*,*,#380,.T.);
#506=ORIENTED_EDGE('',*,*,#379,.T.);
#507=ORIENTED_EDGE('',*,*,#381,.F.);
#508=ORIENTED_EDGE('',*,*,#382,.F.);
#509=ORIENTED_EDGE('',*,*,#350,.T.);
#510=ORIENTED_EDGE('',*,*,#383,.F.);
#511=ORIENTED_EDGE('',*,*,#384,.F.);
#512=ORIENTED_EDGE('',*,*,#385,.T.);
#513=ORIENTED_EDGE('',*,*,#382,.T.);
#514=ORIENTED_EDGE('',*,*,#386,.F.);
#515=ORIENTED_EDGE('',*,*,#343,.T.);
#516=ORIENTED_EDGE('',*,*,#347,.T.);
#517=ORIENTED_EDGE('',*,*,#387,.T.);
#518=ORIENTED_EDGE('',*,*,#384,.T.);
#519=ORIENTED_EDGE('',*,*,#388,.F.);
#520=ORIENTED_EDGE('',*,*,#389,.F.);
#521=ORIENTED_EDGE('',*,*,#390,.T.);
#522=ORIENTED_EDGE('',*,*,#389,.T.);
#523=ORIENTED_EDGE('',*,*,#391,.F.);
#524=ORIENTED_EDGE('',*,*,#392,.F.);
#525=ORIENTED_EDGE('',*,*,#393,.T.);
#526=ORIENTED_EDGE('',*,*,#392,.T.);
#527=ORIENTED_EDGE('',*,*,#394,.F.);
#528=ORIENTED_EDGE('',*,*,#395,.F.);
#529=ORIENTED_EDGE('',*,*,#396,.T.);
#530=ORIENTED_EDGE('',*,*,#395,.T.);
#531=ORIENTED_EDGE('',*,*,#397,.F.);
#532=ORIENTED_EDGE('',*,*,#398,.F.);
#533=ORIENTED_EDGE('',*,*,#399,.T.);
#534=ORIENTED_EDGE('',*,*,#398,.T.);
#535=ORIENTED_EDGE('',*,*,#400,.F.);
#536=ORIENTED_EDGE('',*,*,#377,.F.);
#537=ORIENTED_EDGE('',*,*,#349,.T.);
#538=ORIENTED_EDGE('',*,*,#355,.T.);
#539=ORIENTED_EDGE('',*,*,#364,.T.);
#540=ORIENTED_EDGE('',*,*,#367,.T.);
#541=ORIENTED_EDGE('',*,*,#370,.T.);
#542=ORIENTED_EDGE('',*,*,#373,.T.);
#543=ORIENTED_EDGE('',*,*,#375,.T.);
#544=ORIENTED_EDGE('',*,*,#358,.T.);
#545=ORIENTED_EDGE('',*,*,#361,.T.);
#546=ORIENTED_EDGE('',*,*,#351,.T.);
#547=ORIENTED_EDGE('',*,*,#344,.T.);
#548=ORIENTED_EDGE('',*,*,#386,.T.);
#549=ORIENTED_EDGE('',*,*,#381,.T.);
#550=ORIENTED_EDGE('',*,*,#378,.T.);
#551=ORIENTED_EDGE('',*,*,#400,.T.);
#552=ORIENTED_EDGE('',*,*,#397,.T.);
#553=ORIENTED_EDGE('',*,*,#394,.T.);
#554=ORIENTED_EDGE('',*,*,#391,.T.);
#555=ORIENTED_EDGE('',*,*,#388,.T.);
#556=ORIENTED_EDGE('',*,*,#383,.T.);
#557=ORIENTED_EDGE('',*,*,#399,.F.);
#558=ORIENTED_EDGE('',*,*,#376,.F.);
#559=ORIENTED_EDGE('',*,*,#380,.F.);
#560=ORIENTED_EDGE('',*,*,#385,.F.);
#561=ORIENTED_EDGE('',*,*,#387,.F.);
#562=ORIENTED_EDGE('',*,*,#390,.F.);
#563=ORIENTED_EDGE('',*,*,#393,.F.);
#564=ORIENTED_EDGE('',*,*,#396,.F.);
#565=ORIENTED_EDGE('',*,*,#317,.T.);
#566=ORIENTED_EDGE('',*,*,#323,.T.);
#567=ORIENTED_EDGE('',*,*,#329,.T.);
#568=ORIENTED_EDGE('',*,*,#335,.T.);
#569=CYLINDRICAL_SURFACE('',#633,1.09999999999999);
#570=CYLINDRICAL_SURFACE('',#636,2.19999999999999);
#571=CYLINDRICAL_SURFACE('',#640,1.09999999999999);
#572=CYLINDRICAL_SURFACE('',#643,2.19999999999999);
#573=CYLINDRICAL_SURFACE('',#647,1.09999999999999);
#574=CYLINDRICAL_SURFACE('',#650,2.19999999999999);
#575=CYLINDRICAL_SURFACE('',#654,1.09999999999999);
#576=CYLINDRICAL_SURFACE('',#657,2.19999999999999);
#577=CYLINDRICAL_SURFACE('',#666,0.499999999999998);
#578=CYLINDRICAL_SURFACE('',#669,0.500000000000007);
#579=CYLINDRICAL_SURFACE('',#673,0.500000000000007);
#580=CYLINDRICAL_SURFACE('',#677,0.500000000000007);
#581=CYLINDRICAL_SURFACE('',#682,3.);
#582=CYLINDRICAL_SURFACE('',#686,3.00000000000001);
#583=CYLINDRICAL_SURFACE('',#690,3.00000000000001);
#584=CYLINDRICAL_SURFACE('',#694,3.00000000000001);
#585=ADVANCED_FACE('',(#45),#569,.F.);
#586=ADVANCED_FACE('',(#46),#570,.T.);
#587=ADVANCED_FACE('',(#47,#15),#27,.T.);
#588=ADVANCED_FACE('',(#48),#571,.F.);
#589=ADVANCED_FACE('',(#49),#572,.T.);
#590=ADVANCED_FACE('',(#50,#16),#28,.T.);
#591=ADVANCED_FACE('',(#51),#573,.F.);
#592=ADVANCED_FACE('',(#52),#574,.T.);
#593=ADVANCED_FACE('',(#53,#17),#29,.T.);
#594=ADVANCED_FACE('',(#54),#575,.F.);
#595=ADVANCED_FACE('',(#55),#576,.T.);
#596=ADVANCED_FACE('',(#56,#18),#30,.T.);
#597=ADVANCED_FACE('',(#57),#31,.F.);
#598=ADVANCED_FACE('',(#58),#32,.T.);
#599=ADVANCED_FACE('',(#59),#33,.F.);
#600=ADVANCED_FACE('',(#60),#34,.F.);
#601=ADVANCED_FACE('',(#61),#35,.F.);
#602=ADVANCED_FACE('',(#62),#577,.F.);
#603=ADVANCED_FACE('',(#63),#578,.F.);
#604=ADVANCED_FACE('',(#64),#36,.F.);
#605=ADVANCED_FACE('',(#65),#579,.F.);
#606=ADVANCED_FACE('',(#66),#37,.F.);
#607=ADVANCED_FACE('',(#67),#580,.F.);
#608=ADVANCED_FACE('',(#68,#19,#20,#21,#22),#38,.T.);
#609=ADVANCED_FACE('',(#69),#39,.T.);
#610=ADVANCED_FACE('',(#70),#581,.T.);
#611=ADVANCED_FACE('',(#71),#40,.T.);
#612=ADVANCED_FACE('',(#72),#582,.T.);
#613=ADVANCED_FACE('',(#73),#41,.T.);
#614=ADVANCED_FACE('',(#74),#583,.T.);
#615=ADVANCED_FACE('',(#75),#42,.T.);
#616=ADVANCED_FACE('',(#76),#584,.T.);
#617=ADVANCED_FACE('',(#77),#43,.T.);
#618=ADVANCED_FACE('',(#78,#23,#24,#25,#26),#44,.F.);
#619=CLOSED_SHELL('',(#585,#586,#587,#588,#589,#590,#591,#592,#593,#594,
#595,#596,#597,#598,#599,#600,#601,#602,#603,#604,#605,#606,#607,#608,#609,
#610,#611,#612,#613,#614,#615,#616,#617,#618));
#620=DERIVED_UNIT_ELEMENT(#622,1.);
#621=DERIVED_UNIT_ELEMENT(#1065,-3.);
#622=(
MASS_UNIT()
NAMED_UNIT(*)
SI_UNIT(.KILO.,.GRAM.)
);
#623=DERIVED_UNIT((#620,#621));
#624=MEASURE_REPRESENTATION_ITEM('density measure',
POSITIVE_RATIO_MEASURE(7850.),#623);
#625=PROPERTY_DEFINITION_REPRESENTATION(#630,#627);
#626=PROPERTY_DEFINITION_REPRESENTATION(#631,#628);
#627=REPRESENTATION('material name',(#629),#1062);
#628=REPRESENTATION('density',(#624),#1062);
#629=DESCRIPTIVE_REPRESENTATION_ITEM('Steel','Steel');
#630=PROPERTY_DEFINITION('material property','material name',#1072);
#631=PROPERTY_DEFINITION('material property','density of part',#1072);
#632=AXIS2_PLACEMENT_3D('',#885,#699,#700);
#633=AXIS2_PLACEMENT_3D('',#886,#701,#702);
#634=AXIS2_PLACEMENT_3D('',#888,#703,#704);
#635=AXIS2_PLACEMENT_3D('',#891,#706,#707);
#636=AXIS2_PLACEMENT_3D('',#892,#708,#709);
#637=AXIS2_PLACEMENT_3D('',#894,#710,#711);
#638=AXIS2_PLACEMENT_3D('',#897,#713,#714);
#639=AXIS2_PLACEMENT_3D('',#898,#715,#716);
#640=AXIS2_PLACEMENT_3D('',#899,#717,#718);
#641=AXIS2_PLACEMENT_3D('',#901,#719,#720);
#642=AXIS2_PLACEMENT_3D('',#904,#722,#723);
#643=AXIS2_PLACEMENT_3D('',#905,#724,#725);
#644=AXIS2_PLACEMENT_3D('',#907,#726,#727);
#645=AXIS2_PLACEMENT_3D('',#910,#729,#730);
#646=AXIS2_PLACEMENT_3D('',#911,#731,#732);
#647=AXIS2_PLACEMENT_3D('',#912,#733,#734);
#648=AXIS2_PLACEMENT_3D('',#914,#735,#736);
#649=AXIS2_PLACEMENT_3D('',#917,#738,#739);
#650=AXIS2_PLACEMENT_3D('',#918,#740,#741);
#651=AXIS2_PLACEMENT_3D('',#920,#742,#743);
#652=AXIS2_PLACEMENT_3D('',#923,#745,#746);
#653=AXIS2_PLACEMENT_3D('',#924,#747,#748);
#654=AXIS2_PLACEMENT_3D('',#925,#749,#750);
#655=AXIS2_PLACEMENT_3D('',#927,#751,#752);
#656=AXIS2_PLACEMENT_3D('',#930,#754,#755);
#657=AXIS2_PLACEMENT_3D('',#931,#756,#757);
#658=AXIS2_PLACEMENT_3D('',#933,#758,#759);
#659=AXIS2_PLACEMENT_3D('',#936,#761,#762);
#660=AXIS2_PLACEMENT_3D('',#937,#763,#764);
#661=AXIS2_PLACEMENT_3D('',#938,#765,#766);
#662=AXIS2_PLACEMENT_3D('',#947,#771,#772);
#663=AXIS2_PLACEMENT_3D('',#953,#776,#777);
#664=AXIS2_PLACEMENT_3D('',#959,#781,#782);
#665=AXIS2_PLACEMENT_3D('',#969,#788,#789);
#666=AXIS2_PLACEMENT_3D('',#978,#794,#795);
#667=AXIS2_PLACEMENT_3D('',#979,#796,#797);
#668=AXIS2_PLACEMENT_3D('',#980,#798,#799);
#669=AXIS2_PLACEMENT_3D('',#981,#800,#801);
#670=AXIS2_PLACEMENT_3D('',#983,#802,#803);
#671=AXIS2_PLACEMENT_3D('',#986,#805,#806);
#672=AXIS2_PLACEMENT_3D('',#987,#807,#808);
#673=AXIS2_PLACEMENT_3D('',#993,#812,#813);
#674=AXIS2_PLACEMENT_3D('',#995,#814,#815);
#675=AXIS2_PLACEMENT_3D('',#998,#817,#818);
#676=AXIS2_PLACEMENT_3D('',#999,#819,#820);
#677=AXIS2_PLACEMENT_3D('',#1005,#824,#825);
#678=AXIS2_PLACEMENT_3D('',#1006,#826,#827);
#679=AXIS2_PLACEMENT_3D('',#1007,#828,#829);
#680=AXIS2_PLACEMENT_3D('',#1008,#830,#831);
#681=AXIS2_PLACEMENT_3D('',#1009,#832,#833);
#682=AXIS2_PLACEMENT_3D('',#1018,#838,#839);
#683=AXIS2_PLACEMENT_3D('',#1020,#840,#841);
#684=AXIS2_PLACEMENT_3D('',#1022,#842,#843);
#685=AXIS2_PLACEMENT_3D('',#1024,#845,#846);
#686=AXIS2_PLACEMENT_3D('',#1031,#851,#852);
#687=AXIS2_PLACEMENT_3D('',#1033,#853,#854);
#688=AXIS2_PLACEMENT_3D('',#1035,#855,#856);
#689=AXIS2_PLACEMENT_3D('',#1037,#858,#859);
#690=AXIS2_PLACEMENT_3D('',#1043,#863,#864);
#691=AXIS2_PLACEMENT_3D('',#1045,#865,#866);
#692=AXIS2_PLACEMENT_3D('',#1047,#867,#868);
#693=AXIS2_PLACEMENT_3D('',#1049,#870,#871);
#694=AXIS2_PLACEMENT_3D('',#1055,#875,#876);
#695=AXIS2_PLACEMENT_3D('',#1056,#877,#878);
#696=AXIS2_PLACEMENT_3D('',#1057,#879,#880);
#697=AXIS2_PLACEMENT_3D('',#1058,#881,#882);
#698=AXIS2_PLACEMENT_3D('',#1059,#883,#884);
#699=DIRECTION('axis',(0.,0.,1.));
#700=DIRECTION('refdir',(1.,0.,0.));
#701=DIRECTION('center_axis',(0.,0.,1.));
#702=DIRECTION('ref_axis',(1.,0.,0.));
#703=DIRECTION('center_axis',(0.,0.,1.));
#704=DIRECTION('ref_axis',(1.,0.,0.));
#705=DIRECTION('',(0.,0.,1.));
#706=DIRECTION('center_axis',(0.,0.,-1.));
#707=DIRECTION('ref_axis',(1.,0.,0.));
#708=DIRECTION('center_axis',(0.,0.,1.));
#709=DIRECTION('ref_axis',(1.,0.,0.));
#710=DIRECTION('center_axis',(0.,0.,1.));
#711=DIRECTION('ref_axis',(1.,0.,0.));
#712=DIRECTION('',(0.,0.,-1.));
#713=DIRECTION('center_axis',(0.,0.,-1.));
#714=DIRECTION('ref_axis',(1.,0.,0.));
#715=DIRECTION('center_axis',(0.,0.,1.));
#716=DIRECTION('ref_axis',(1.,0.,0.));
#717=DIRECTION('center_axis',(0.,0.,1.));
#718=DIRECTION('ref_axis',(1.,0.,0.));
#719=DIRECTION('center_axis',(0.,0.,1.));
#720=DIRECTION('ref_axis',(1.,0.,0.));
#721=DIRECTION('',(0.,0.,1.));
#722=DIRECTION('center_axis',(0.,0.,-1.));
#723=DIRECTION('ref_axis',(1.,0.,0.));
#724=DIRECTION('center_axis',(0.,0.,1.));
#725=DIRECTION('ref_axis',(1.,0.,0.));
#726=DIRECTION('center_axis',(0.,0.,1.));
#727=DIRECTION('ref_axis',(1.,0.,0.));
#728=DIRECTION('',(0.,0.,-1.));
#729=DIRECTION('center_axis',(0.,0.,-1.));
#730=DIRECTION('ref_axis',(1.,0.,0.));
#731=DIRECTION('center_axis',(0.,0.,1.));
#732=DIRECTION('ref_axis',(1.,0.,0.));
#733=DIRECTION('center_axis',(0.,0.,1.));
#734=DIRECTION('ref_axis',(1.,0.,0.));
#735=DIRECTION('center_axis',(0.,0.,1.));
#736=DIRECTION('ref_axis',(1.,0.,0.));
#737=DIRECTION('',(0.,0.,1.));
#738=DIRECTION('center_axis',(0.,0.,-1.));
#739=DIRECTION('ref_axis',(1.,0.,0.));
#740=DIRECTION('center_axis',(0.,0.,1.));
#741=DIRECTION('ref_axis',(1.,0.,0.));
#742=DIRECTION('center_axis',(0.,0.,1.));
#743=DIRECTION('ref_axis',(1.,0.,0.));
#744=DIRECTION('',(0.,0.,-1.));
#745=DIRECTION('center_axis',(0.,0.,-1.));
#746=DIRECTION('ref_axis',(1.,0.,0.));
#747=DIRECTION('center_axis',(0.,0.,1.));
#748=DIRECTION('ref_axis',(1.,0.,0.));
#749=DIRECTION('center_axis',(0.,0.,1.));
#750=DIRECTION('ref_axis',(1.,0.,0.));
#751=DIRECTION('center_axis',(0.,0.,1.));
#752=DIRECTION('ref_axis',(1.,0.,0.));
#753=DIRECTION('',(0.,0.,1.));
#754=DIRECTION('center_axis',(0.,0.,-1.));
#755=DIRECTION('ref_axis',(1.,0.,0.));
#756=DIRECTION('center_axis',(0.,0.,1.));
#757=DIRECTION('ref_axis',(1.,0.,0.));
#758=DIRECTION('center_axis',(0.,0.,1.));
#759=DIRECTION('ref_axis',(1.,0.,0.));
#760=DIRECTION('',(0.,0.,-1.));
#761=DIRECTION('center_axis',(0.,0.,-1.));
#762=DIRECTION('ref_axis',(1.,0.,0.));
#763=DIRECTION('center_axis',(0.,0.,1.));
#764=DIRECTION('ref_axis',(1.,0.,0.));
#765=DIRECTION('center_axis',(-1.,0.,0.));
#766=DIRECTION('ref_axis',(0.,-1.,0.));
#767=DIRECTION('',(0.,0.,1.));
#768=DIRECTION('',(0.,-1.,0.));
#769=DIRECTION('',(0.,0.,-1.));
#770=DIRECTION('',(0.,1.,0.));
#771=DIRECTION('center_axis',(0.,0.,1.));
#772=DIRECTION('ref_axis',(1.,0.,0.));
#773=DIRECTION('',(-1.,0.,0.));
#774=DIRECTION('',(0.,1.,0.));
#775=DIRECTION('',(1.,0.,0.));
#776=DIRECTION('center_axis',(1.,0.,0.));
#777=DIRECTION('ref_axis',(0.,1.,0.));
#778=DIRECTION('',(0.,0.,-1.));
#779=DIRECTION('',(0.,-1.,0.));
#780=DIRECTION('',(0.,0.,1.));
#781=DIRECTION('center_axis',(0.,1.,0.));
#782=DIRECTION('ref_axis',(-1.,0.,0.));
#783=DIRECTION('',(1.,0.,0.));
#784=DIRECTION('',(0.,0.,1.));
#785=DIRECTION('',(-1.,0.,0.));
#786=DIRECTION('',(0.,0.,1.));
#787=DIRECTION('',(1.,0.,0.));
#788=DIRECTION('center_axis',(-1.,0.,0.));
#789=DIRECTION('ref_axis',(0.,-1.,0.));
#790=DIRECTION('',(0.,-1.,0.));
#791=DIRECTION('',(0.,0.,1.));
#792=DIRECTION('',(0.,1.,0.));
#793=DIRECTION('',(0.,0.,1.));
#794=DIRECTION('center_axis',(0.,0.,1.));
#795=DIRECTION('ref_axis',(0.,1.,0.));
#796=DIRECTION('center_axis',(0.,0.,1.));
#797=DIRECTION('ref_axis',(0.,1.,0.));
#798=DIRECTION('center_axis',(0.,0.,-1.));
#799=DIRECTION('ref_axis',(0.,1.,0.));
#800=DIRECTION('center_axis',(0.,0.,1.));
#801=DIRECTION('ref_axis',(1.,0.,0.));
#802=DIRECTION('center_axis',(0.,0.,1.));
#803=DIRECTION('ref_axis',(1.,0.,0.));
#804=DIRECTION('',(0.,0.,1.));
#805=DIRECTION('center_axis',(0.,0.,-1.));
#806=DIRECTION('ref_axis',(1.,0.,0.));
#807=DIRECTION('center_axis',(1.,0.,0.));
#808=DIRECTION('ref_axis',(0.,1.,0.));
#809=DIRECTION('',(0.,1.,0.));
#810=DIRECTION('',(0.,0.,1.));
#811=DIRECTION('',(0.,-1.,0.));
#812=DIRECTION('center_axis',(0.,0.,1.));
#813=DIRECTION('ref_axis',(0.,-1.,0.));
#814=DIRECTION('center_axis',(0.,0.,1.));
#815=DIRECTION('ref_axis',(0.,-1.,0.));
#816=DIRECTION('',(0.,0.,1.));
#817=DIRECTION('center_axis',(0.,0.,-1.));
#818=DIRECTION('ref_axis',(0.,-1.,0.));
#819=DIRECTION('center_axis',(0.,-1.,0.));
#820=DIRECTION('ref_axis',(1.,0.,0.));
#821=DIRECTION('',(1.,0.,0.));
#822=DIRECTION('',(0.,0.,1.));
#823=DIRECTION('',(-1.,0.,0.));
#824=DIRECTION('center_axis',(0.,0.,1.));
#825=DIRECTION('ref_axis',(-1.,0.,0.));
#826=DIRECTION('center_axis',(0.,0.,1.));
#827=DIRECTION('ref_axis',(-1.,0.,0.));
#828=DIRECTION('center_axis',(0.,0.,-1.));
#829=DIRECTION('ref_axis',(-1.,0.,0.));
#830=DIRECTION('center_axis',(0.,0.,1.));
#831=DIRECTION('ref_axis',(1.,0.,0.));
#832=DIRECTION('center_axis',(-1.,0.,0.));
#833=DIRECTION('ref_axis',(0.,-1.,0.));
#834=DIRECTION('',(0.,-1.,0.));
#835=DIRECTION('',(0.,0.,1.));
#836=DIRECTION('',(0.,-1.,0.));
#837=DIRECTION('',(0.,0.,1.));
#838=DIRECTION('center_axis',(0.,0.,1.));
#839=DIRECTION('ref_axis',(0.,1.,0.));
#840=DIRECTION('center_axis',(0.,0.,1.));
#841=DIRECTION('ref_axis',(0.,1.,0.));
#842=DIRECTION('center_axis',(0.,0.,1.));
#843=DIRECTION('ref_axis',(0.,1.,0.));
#844=DIRECTION('',(0.,0.,1.));
#845=DIRECTION('center_axis',(0.,1.,0.));
#846=DIRECTION('ref_axis',(-1.,0.,0.));
#847=DIRECTION('',(-1.,0.,0.));
#848=DIRECTION('',(0.,0.,1.));
#849=DIRECTION('',(-1.,0.,0.));
#850=DIRECTION('',(-1.,0.,0.));
#851=DIRECTION('center_axis',(0.,0.,1.));
#852=DIRECTION('ref_axis',(1.,0.,0.));
#853=DIRECTION('center_axis',(0.,0.,1.));
#854=DIRECTION('ref_axis',(1.,0.,0.));
#855=DIRECTION('center_axis',(0.,0.,1.));
#856=DIRECTION('ref_axis',(1.,0.,0.));
#857=DIRECTION('',(0.,0.,1.));
#858=DIRECTION('center_axis',(1.,0.,0.));
#859=DIRECTION('ref_axis',(0.,1.,0.));
#860=DIRECTION('',(0.,1.,0.));
#861=DIRECTION('',(0.,1.,0.));
#862=DIRECTION('',(0.,0.,1.));
#863=DIRECTION('center_axis',(0.,0.,1.));
#864=DIRECTION('ref_axis',(0.,-1.,0.));
#865=DIRECTION('center_axis',(0.,0.,1.));
#866=DIRECTION('ref_axis',(0.,-1.,0.));
#867=DIRECTION('center_axis',(0.,0.,1.));
#868=DIRECTION('ref_axis',(0.,-1.,0.));
#869=DIRECTION('',(0.,0.,1.));
#870=DIRECTION('center_axis',(0.,-1.,0.));
#871=DIRECTION('ref_axis',(1.,0.,0.));
#872=DIRECTION('',(1.,0.,0.));
#873=DIRECTION('',(1.,0.,0.));
#874=DIRECTION('',(0.,0.,1.));
#875=DIRECTION('center_axis',(0.,0.,1.));
#876=DIRECTION('ref_axis',(-1.,0.,0.));
#877=DIRECTION('center_axis',(0.,0.,1.));
#878=DIRECTION('ref_axis',(-1.,0.,0.));
#879=DIRECTION('center_axis',(0.,0.,1.));
#880=DIRECTION('ref_axis',(-1.,0.,0.));
#881=DIRECTION('center_axis',(0.,0.,1.));
#882=DIRECTION('ref_axis',(1.,0.,0.));
#883=DIRECTION('center_axis',(0.,0.,1.));
#884=DIRECTION('ref_axis',(1.,0.,0.));
#885=CARTESIAN_POINT('',(0.,0.,0.));
#886=CARTESIAN_POINT('Origin',(184.62,-79.89,-2.01));
#887=CARTESIAN_POINT('',(183.52,-79.89,-2.01));
#888=CARTESIAN_POINT('Origin',(184.62,-79.89,-2.01));
#889=CARTESIAN_POINT('',(183.52,-79.89,2.79));
#890=CARTESIAN_POINT('',(183.52,-79.89,-2.01));
#891=CARTESIAN_POINT('Origin',(184.62,-79.89,2.79));
#892=CARTESIAN_POINT('Origin',(184.62,-79.89,-2.01));
#893=CARTESIAN_POINT('',(182.42,-79.89,2.79));
#894=CARTESIAN_POINT('Origin',(184.62,-79.89,2.79));
#895=CARTESIAN_POINT('',(182.42,-79.89,-0.01));
#896=CARTESIAN_POINT('',(182.42,-79.89,-2.01));
#897=CARTESIAN_POINT('Origin',(184.62,-79.89,-0.01));
#898=CARTESIAN_POINT('Origin',(184.62,-79.89,2.79));
#899=CARTESIAN_POINT('Origin',(184.62,-131.39,-2.01));
#900=CARTESIAN_POINT('',(183.52,-131.39,-2.01));
#901=CARTESIAN_POINT('Origin',(184.62,-131.39,-2.01));
#902=CARTESIAN_POINT('',(183.52,-131.39,2.79));
#903=CARTESIAN_POINT('',(183.52,-131.39,-2.01));
#904=CARTESIAN_POINT('Origin',(184.62,-131.39,2.79));
#905=CARTESIAN_POINT('Origin',(184.62,-131.39,-2.01));
#906=CARTESIAN_POINT('',(182.42,-131.39,2.79));
#907=CARTESIAN_POINT('Origin',(184.62,-131.39,2.79));
#908=CARTESIAN_POINT('',(182.42,-131.39,-0.01));
#909=CARTESIAN_POINT('',(182.42,-131.39,-2.01));
#910=CARTESIAN_POINT('Origin',(184.62,-131.39,-0.01));
#911=CARTESIAN_POINT('Origin',(184.62,-131.39,2.79));
#912=CARTESIAN_POINT('Origin',(176.62,-79.89,-2.01));
#913=CARTESIAN_POINT('',(175.52,-79.89,-2.01));
#914=CARTESIAN_POINT('Origin',(176.62,-79.89,-2.01));
#915=CARTESIAN_POINT('',(175.52,-79.89,2.79));
#916=CARTESIAN_POINT('',(175.52,-79.89,-2.01));
#917=CARTESIAN_POINT('Origin',(176.62,-79.89,2.79));
#918=CARTESIAN_POINT('Origin',(176.62,-79.89,-2.01));
#919=CARTESIAN_POINT('',(174.42,-79.89,2.79));
#920=CARTESIAN_POINT('Origin',(176.62,-79.89,2.79));
#921=CARTESIAN_POINT('',(174.42,-79.89,-0.01));
#922=CARTESIAN_POINT('',(174.42,-79.89,-2.01));
#923=CARTESIAN_POINT('Origin',(176.62,-79.89,-0.01));
#924=CARTESIAN_POINT('Origin',(176.62,-79.89,2.79));
#925=CARTESIAN_POINT('Origin',(176.62,-131.39,-2.01));
#926=CARTESIAN_POINT('',(175.52,-131.39,-2.01));
#927=CARTESIAN_POINT('Origin',(176.62,-131.39,-2.01));
#928=CARTESIAN_POINT('',(175.52,-131.39,2.79));
#929=CARTESIAN_POINT('',(175.52,-131.39,-2.01));
#930=CARTESIAN_POINT('Origin',(176.62,-131.39,2.79));
#931=CARTESIAN_POINT('Origin',(176.62,-131.39,-2.01));
#932=CARTESIAN_POINT('',(174.42,-131.39,2.79));
#933=CARTESIAN_POINT('Origin',(176.62,-131.39,2.79));
#934=CARTESIAN_POINT('',(174.42,-131.39,-0.01));
#935=CARTESIAN_POINT('',(174.42,-131.39,-2.01));
#936=CARTESIAN_POINT('Origin',(176.62,-131.39,-0.01));
#937=CARTESIAN_POINT('Origin',(176.62,-131.39,2.79));
#938=CARTESIAN_POINT('Origin',(176.2452,-68.47,3.24));
#939=CARTESIAN_POINT('',(176.2452,-71.07,3.24));
#940=CARTESIAN_POINT('',(176.2452,-71.07,6.39));
#941=CARTESIAN_POINT('',(176.2452,-71.07,1.615));
#942=CARTESIAN_POINT('',(176.2452,-68.57,3.24));
#943=CARTESIAN_POINT('',(176.2452,-68.47,3.24));
#944=CARTESIAN_POINT('',(176.2452,-68.57,6.39));
#945=CARTESIAN_POINT('',(176.2452,-68.57,0.615));
#946=CARTESIAN_POINT('',(176.2452,-86.975,6.39));
#947=CARTESIAN_POINT('Origin',(180.9952,-69.82,3.24));
#948=CARTESIAN_POINT('',(185.7452,-71.07,3.24));
#949=CARTESIAN_POINT('',(187.0776,-71.07,3.24));
#950=CARTESIAN_POINT('',(185.7452,-68.57,3.24));
#951=CARTESIAN_POINT('',(185.7452,-71.17,3.24));
#952=CARTESIAN_POINT('',(187.0776,-68.57,3.24));
#953=CARTESIAN_POINT('Origin',(185.7452,-71.17,3.24));
#954=CARTESIAN_POINT('',(185.7452,-71.07,6.39));
#955=CARTESIAN_POINT('',(185.7452,-71.07,1.615));
#956=CARTESIAN_POINT('',(185.7452,-68.57,6.39));
#957=CARTESIAN_POINT('',(185.7452,-88.325,6.39));
#958=CARTESIAN_POINT('',(185.7452,-68.57,0.615));
#959=CARTESIAN_POINT('Origin',(193.16,-71.07,-0.01));
#960=CARTESIAN_POINT('',(88.62,-71.07,6.39));
#961=CARTESIAN_POINT('',(167.025,-71.07,6.39));
#962=CARTESIAN_POINT('',(88.62,-71.07,-0.01));
#963=CARTESIAN_POINT('',(88.62,-71.07,-0.01));
#964=CARTESIAN_POINT('',(193.16,-71.07,-0.01));
#965=CARTESIAN_POINT('',(193.16,-71.07,-0.01));
#966=CARTESIAN_POINT('',(193.16,-71.07,6.39));
#967=CARTESIAN_POINT('',(193.16,-71.07,-0.01));
#968=CARTESIAN_POINT('',(167.025,-71.07,6.39));
#969=CARTESIAN_POINT('Origin',(88.12,-71.57,-0.01));
#970=CARTESIAN_POINT('',(88.12,-71.57,-0.01));
#971=CARTESIAN_POINT('',(88.12,-139.39,-0.01));
#972=CARTESIAN_POINT('',(88.12,-71.57,-0.01));
#973=CARTESIAN_POINT('',(88.12,-71.57,6.39));
#974=CARTESIAN_POINT('',(88.12,-71.57,-0.01));
#975=CARTESIAN_POINT('',(88.12,-139.39,6.39));
#976=CARTESIAN_POINT('',(88.12,-88.525,6.39));
#977=CARTESIAN_POINT('',(88.12,-139.39,-0.01));
#978=CARTESIAN_POINT('Origin',(88.62,-71.57,-0.01));
#979=CARTESIAN_POINT('Origin',(88.62,-71.57,-0.01));
#980=CARTESIAN_POINT('Origin',(88.62,-71.57,6.39));
#981=CARTESIAN_POINT('Origin',(193.16,-71.57,-0.01));
#982=CARTESIAN_POINT('',(193.66,-71.57,-0.01));
#983=CARTESIAN_POINT('Origin',(193.16,-71.57,-0.01));
#984=CARTESIAN_POINT('',(193.66,-71.57,6.39));
#985=CARTESIAN_POINT('',(193.66,-71.57,-0.01));
#986=CARTESIAN_POINT('Origin',(193.16,-71.57,6.39));
#987=CARTESIAN_POINT('Origin',(193.66,-139.39,-0.01));
#988=CARTESIAN_POINT('',(193.66,-139.39,-0.01));
#989=CARTESIAN_POINT('',(193.66,-139.39,-0.01));
#990=CARTESIAN_POINT('',(193.66,-139.39,6.39));
#991=CARTESIAN_POINT('',(193.66,-139.39,-0.01));
#992=CARTESIAN_POINT('',(193.66,-122.435,6.39));
#993=CARTESIAN_POINT('Origin',(193.16,-139.39,-0.01));
#994=CARTESIAN_POINT('',(193.16,-139.89,-0.01));
#995=CARTESIAN_POINT('Origin',(193.16,-139.39,-0.01));
#996=CARTESIAN_POINT('',(193.16,-139.89,6.39));
#997=CARTESIAN_POINT('',(193.16,-139.89,-0.01));
#998=CARTESIAN_POINT('Origin',(193.16,-139.39,6.39));
#999=CARTESIAN_POINT('Origin',(88.62,-139.89,-0.01));
#1000=CARTESIAN_POINT('',(88.62,-139.89,-0.01));
#1001=CARTESIAN_POINT('',(88.62,-139.89,-0.01));
#1002=CARTESIAN_POINT('',(88.62,-139.89,6.39));
#1003=CARTESIAN_POINT('',(88.62,-139.89,-0.01));
#1004=CARTESIAN_POINT('',(114.755,-139.89,6.39));
#1005=CARTESIAN_POINT('Origin',(88.62,-139.39,-0.01));
#1006=CARTESIAN_POINT('Origin',(88.62,-139.39,-0.01));
#1007=CARTESIAN_POINT('Origin',(88.62,-139.39,6.39));
#1008=CARTESIAN_POINT('Origin',(140.89,-105.48,-0.01));
#1009=CARTESIAN_POINT('Origin',(85.62,-71.57,-2.01));
#1010=CARTESIAN_POINT('',(85.62,-71.57,-2.01));
#1011=CARTESIAN_POINT('',(85.62,-139.39,-2.01));
#1012=CARTESIAN_POINT('',(85.62,-71.57,-2.01));
#1013=CARTESIAN_POINT('',(85.62,-139.39,6.39));
#1014=CARTESIAN_POINT('',(85.62,-139.39,-2.01));
#1015=CARTESIAN_POINT('',(85.62,-71.57,6.39));
#1016=CARTESIAN_POINT('',(85.62,-71.57,6.39));
#1017=CARTESIAN_POINT('',(85.62,-71.57,-2.01));
#1018=CARTESIAN_POINT('Origin',(88.62,-71.57,-2.01));
#1019=CARTESIAN_POINT('',(88.62,-68.57,-2.01));
#1020=CARTESIAN_POINT('Origin',(88.62,-71.57,-2.01));
#1021=CARTESIAN_POINT('',(88.62,-68.57,6.39));
#1022=CARTESIAN_POINT('Origin',(88.62,-71.57,6.39));
#1023=CARTESIAN_POINT('',(88.62,-68.57,-2.01));
#1024=CARTESIAN_POINT('Origin',(193.16,-68.57,-2.01));
#1025=CARTESIAN_POINT('',(193.16,-68.57,6.39));
#1026=CARTESIAN_POINT('',(193.16,-68.57,6.39));
#1027=CARTESIAN_POINT('',(193.16,-68.57,-2.01));
#1028=CARTESIAN_POINT('',(193.16,-68.57,-2.01));
#1029=CARTESIAN_POINT('',(193.16,-68.57,-2.01));
#1030=CARTESIAN_POINT('',(193.16,-68.57,6.39));
#1031=CARTESIAN_POINT('Origin',(193.16,-71.57,-2.01));
#1032=CARTESIAN_POINT('',(196.16,-71.57,-2.01));
#1033=CARTESIAN_POINT('Origin',(193.16,-71.57,-2.01));
#1034=CARTESIAN_POINT('',(196.16,-71.57,6.39));
#1035=CARTESIAN_POINT('Origin',(193.16,-71.57,6.39));
#1036=CARTESIAN_POINT('',(196.16,-71.57,-2.01));
#1037=CARTESIAN_POINT('Origin',(196.16,-139.39,-2.01));
#1038=CARTESIAN_POINT('',(196.16,-139.39,-2.01));
#1039=CARTESIAN_POINT('',(196.16,-139.39,-2.01));
#1040=CARTESIAN_POINT('',(196.16,-139.39,6.39));
#1041=CARTESIAN_POINT('',(196.16,-139.39,6.39));
#1042=CARTESIAN_POINT('',(196.16,-139.39,-2.01));
#1043=CARTESIAN_POINT('Origin',(193.16,-139.39,-2.01));
#1044=CARTESIAN_POINT('',(193.16,-142.39,-2.01));
#1045=CARTESIAN_POINT('Origin',(193.16,-139.39,-2.01));
#1046=CARTESIAN_POINT('',(193.16,-142.39,6.39));
#1047=CARTESIAN_POINT('Origin',(193.16,-139.39,6.39));
#1048=CARTESIAN_POINT('',(193.16,-142.39,-2.01));
#1049=CARTESIAN_POINT('Origin',(88.62,-142.39,-2.01));
#1050=CARTESIAN_POINT('',(88.62,-142.39,-2.01));
#1051=CARTESIAN_POINT('',(88.62,-142.39,-2.01));
#1052=CARTESIAN_POINT('',(88.62,-142.39,6.39));
#1053=CARTESIAN_POINT('',(88.62,-142.39,6.39));
#1054=CARTESIAN_POINT('',(88.62,-142.39,-2.01));
#1055=CARTESIAN_POINT('Origin',(88.62,-139.39,-2.01));
#1056=CARTESIAN_POINT('Origin',(88.62,-139.39,-2.01));
#1057=CARTESIAN_POINT('Origin',(88.62,-139.39,6.39));
#1058=CARTESIAN_POINT('Origin',(140.89,-105.48,6.39));
#1059=CARTESIAN_POINT('Origin',(140.89,-105.48,-2.01));
#1060=UNCERTAINTY_MEASURE_WITH_UNIT(LENGTH_MEASURE(0.01),#1064,
'DISTANCE_ACCURACY_VALUE',
'Maximum model space distance between geometric entities at asserted c
onnectivities');
#1061=UNCERTAINTY_MEASURE_WITH_UNIT(LENGTH_MEASURE(0.01),#1064,
'DISTANCE_ACCURACY_VALUE',
'Maximum model space distance between geometric entities at asserted c
onnectivities');
#1062=(
GEOMETRIC_REPRESENTATION_CONTEXT(3)
GLOBAL_UNCERTAINTY_ASSIGNED_CONTEXT((#1060))
GLOBAL_UNIT_ASSIGNED_CONTEXT((#1064,#1066,#1067))
REPRESENTATION_CONTEXT('','3D')
);
#1063=(
GEOMETRIC_REPRESENTATION_CONTEXT(3)
GLOBAL_UNCERTAINTY_ASSIGNED_CONTEXT((#1061))
GLOBAL_UNIT_ASSIGNED_CONTEXT((#1064,#1066,#1067))
REPRESENTATION_CONTEXT('','3D')
);
#1064=(
LENGTH_UNIT()
NAMED_UNIT(*)
SI_UNIT(.MILLI.,.METRE.)
);
#1065=(
LENGTH_UNIT()
NAMED_UNIT(*)
SI_UNIT($,.METRE.)
);
#1066=(
NAMED_UNIT(*)
PLANE_ANGLE_UNIT()
SI_UNIT($,.RADIAN.)
);
#1067=(
NAMED_UNIT(*)
SI_UNIT($,.STERADIAN.)
SOLID_ANGLE_UNIT()
);
#1068=SHAPE_DEFINITION_REPRESENTATION(#1069,#1070);
#1069=PRODUCT_DEFINITION_SHAPE('',$,#1072);
#1070=SHAPE_REPRESENTATION('',(#632),#1062);
#1071=PRODUCT_DEFINITION_CONTEXT('part definition',#1076,'design');
#1072=PRODUCT_DEFINITION('a 1','a',#1073,#1071);
#1073=PRODUCT_DEFINITION_FORMATION('',$,#1078);
#1074=PRODUCT_RELATED_PRODUCT_CATEGORY('a','a',(#1078));
#1075=APPLICATION_PROTOCOL_DEFINITION('international standard',
'automotive_design',2009,#1076);
#1076=APPLICATION_CONTEXT(
'Core Data for Automotive Mechanical Design Process');
#1077=PRODUCT_CONTEXT('part definition',#1076,'mechanical');
#1078=PRODUCT('a 1','a','KiCad electronic assembly',(#1077));
#1079=PRESENTATION_STYLE_ASSIGNMENT((#1080));
#1080=SURFACE_STYLE_USAGE(.BOTH.,#1081);
#1081=SURFACE_SIDE_STYLE('',(#1082));
#1082=SURFACE_STYLE_FILL_AREA(#1083);
#1083=FILL_AREA_STYLE('Steel - Satin',(#1084));
#1084=FILL_AREA_STYLE_COLOUR('Steel - Satin',#1085);
#1085=COLOUR_RGB('Steel - Satin',0.627450980392157,0.627450980392157,0.627450980392157);
ENDSEC;
END-ISO-10303-21;
