ISO-10303-21;
HEADER;
/* Generated by software containing ST-Developer
 * from STEP Tools, Inc. (www.steptools.com) 
 */

FILE_DESCRIPTION(
/* description */ (''),
/* implementation_level */ '2;1');

FILE_NAME(
/* name */ 'Bottom.step',
/* time_stamp */ '2026-08-25T01:35:53+03:00',
/* author */ (''),
/* organization */ (''),
/* preprocessor_version */ 'ST-DEVELOPER v20.1',
/* originating_system */ 'Autodesk Translation Framework v15.8.0.0',
/* authorisation */ '');

FILE_SCHEMA (('AUTOMOTIVE_DESIGN { 1 0 10303 214 3 1 1 }'));
ENDSEC;

DATA;
#10=MECHANICAL_DESIGN_GEOMETRIC_PRESENTATION_REPRESENTATION('',(#13),#495);
#11=SHAPE_REPRESENTATION_RELATIONSHIP('SRR','None',#502,#12);
#12=ADVANCED_BREP_SHAPE_REPRESENTATION('',(#14),#494);
#13=STYLED_ITEM('',(#511),#14);
#14=MANIFOLD_SOLID_BREP('Body1',#305);
#15=FACE_OUTER_BOUND('',#31,.T.);
#16=FACE_OUTER_BOUND('',#32,.T.);
#17=FACE_OUTER_BOUND('',#33,.T.);
#18=FACE_OUTER_BOUND('',#34,.T.);
#19=FACE_OUTER_BOUND('',#35,.T.);
#20=FACE_OUTER_BOUND('',#36,.T.);
#21=FACE_OUTER_BOUND('',#37,.T.);
#22=FACE_OUTER_BOUND('',#38,.T.);
#23=FACE_OUTER_BOUND('',#39,.T.);
#24=FACE_OUTER_BOUND('',#40,.T.);
#25=FACE_OUTER_BOUND('',#41,.T.);
#26=FACE_OUTER_BOUND('',#42,.T.);
#27=FACE_OUTER_BOUND('',#43,.T.);
#28=FACE_OUTER_BOUND('',#44,.T.);
#29=FACE_OUTER_BOUND('',#45,.T.);
#30=FACE_OUTER_BOUND('',#46,.T.);
#31=EDGE_LOOP('',(#193,#194,#195,#196));
#32=EDGE_LOOP('',(#197,#198,#199,#200,#201));
#33=EDGE_LOOP('',(#202,#203,#204,#205,#206));
#34=EDGE_LOOP('',(#207,#208,#209,#210));
#35=EDGE_LOOP('',(#211,#212,#213,#214));
#36=EDGE_LOOP('',(#215,#216,#217,#218));
#37=EDGE_LOOP('',(#219,#220,#221,#222));
#38=EDGE_LOOP('',(#223,#224,#225,#226));
#39=EDGE_LOOP('',(#227,#228,#229,#230));
#40=EDGE_LOOP('',(#231,#232,#233,#234,#235,#236));
#41=EDGE_LOOP('',(#237,#238,#239,#240));
#42=EDGE_LOOP('',(#241,#242,#243,#244));
#43=EDGE_LOOP('',(#245,#246,#247,#248));
#44=EDGE_LOOP('',(#249,#250,#251,#252));
#45=EDGE_LOOP('',(#253,#254,#255,#256,#257,#258,#259,#260,#261,#262,#263,
#264));
#46=EDGE_LOOP('',(#265,#266,#267,#268,#269,#270,#271,#272));
#47=LINE('',#413,#87);
#48=LINE('',#415,#88);
#49=LINE('',#417,#89);
#50=LINE('',#418,#90);
#51=LINE('',#422,#91);
#52=LINE('',#424,#92);
#53=LINE('',#425,#93);
#54=LINE('',#426,#94);
#55=LINE('',#430,#95);
#56=LINE('',#431,#96);
#57=LINE('',#433,#97);
#58=LINE('',#434,#98);
#59=LINE('',#437,#99);
#60=LINE('',#439,#100);
#61=LINE('',#440,#101);
#62=LINE('',#443,#102);
#63=LINE('',#445,#103);
#64=LINE('',#446,#104);
#65=LINE('',#449,#105);
#66=LINE('',#451,#106);
#67=LINE('',#452,#107);
#68=LINE('',#455,#108);
#69=LINE('',#457,#109);
#70=LINE('',#458,#110);
#71=LINE('',#461,#111);
#72=LINE('',#463,#112);
#73=LINE('',#464,#113);
#74=LINE('',#466,#114);
#75=LINE('',#467,#115);
#76=LINE('',#471,#116);
#77=LINE('',#473,#117);
#78=LINE('',#474,#118);
#79=LINE('',#477,#119);
#80=LINE('',#479,#120);
#81=LINE('',#480,#121);
#82=LINE('',#483,#122);
#83=LINE('',#485,#123);
#84=LINE('',#486,#124);
#85=LINE('',#488,#125);
#86=LINE('',#489,#126);
#87=VECTOR('',#339,10.);
#88=VECTOR('',#340,10.);
#89=VECTOR('',#341,10.);
#90=VECTOR('',#342,10.);
#91=VECTOR('',#345,10.);
#92=VECTOR('',#346,10.);
#93=VECTOR('',#347,10.);
#94=VECTOR('',#348,10.);
#95=VECTOR('',#351,10.);
#96=VECTOR('',#352,10.);
#97=VECTOR('',#353,10.);
#98=VECTOR('',#354,10.);
#99=VECTOR('',#357,10.);
#100=VECTOR('',#358,10.);
#101=VECTOR('',#359,10.);
#102=VECTOR('',#362,10.);
#103=VECTOR('',#363,10.);
#104=VECTOR('',#364,10.);
#105=VECTOR('',#367,10.);
#106=VECTOR('',#368,10.);
#107=VECTOR('',#369,10.);
#108=VECTOR('',#372,10.);
#109=VECTOR('',#373,10.);
#110=VECTOR('',#374,10.);
#111=VECTOR('',#377,10.);
#112=VECTOR('',#378,10.);
#113=VECTOR('',#379,10.);
#114=VECTOR('',#382,10.);
#115=VECTOR('',#383,10.);
#116=VECTOR('',#388,10.);
#117=VECTOR('',#389,10.);
#118=VECTOR('',#390,10.);
#119=VECTOR('',#393,10.);
#120=VECTOR('',#394,10.);
#121=VECTOR('',#395,10.);
#122=VECTOR('',#398,10.);
#123=VECTOR('',#399,10.);
#124=VECTOR('',#400,10.);
#125=VECTOR('',#403,10.);
#126=VECTOR('',#404,10.);
#127=VERTEX_POINT('',#411);
#128=VERTEX_POINT('',#412);
#129=VERTEX_POINT('',#414);
#130=VERTEX_POINT('',#416);
#131=VERTEX_POINT('',#420);
#132=VERTEX_POINT('',#421);
#133=VERTEX_POINT('',#423);
#134=VERTEX_POINT('',#428);
#135=VERTEX_POINT('',#429);
#136=VERTEX_POINT('',#432);
#137=VERTEX_POINT('',#436);
#138=VERTEX_POINT('',#438);
#139=VERTEX_POINT('',#442);
#140=VERTEX_POINT('',#444);
#141=VERTEX_POINT('',#448);
#142=VERTEX_POINT('',#450);
#143=VERTEX_POINT('',#454);
#144=VERTEX_POINT('',#456);
#145=VERTEX_POINT('',#460);
#146=VERTEX_POINT('',#462);
#147=VERTEX_POINT('',#470);
#148=VERTEX_POINT('',#472);
#149=VERTEX_POINT('',#476);
#150=VERTEX_POINT('',#478);
#151=VERTEX_POINT('',#482);
#152=VERTEX_POINT('',#484);
#153=EDGE_CURVE('',#127,#128,#47,.F.);
#154=EDGE_CURVE('',#129,#127,#48,.T.);
#155=EDGE_CURVE('',#130,#129,#49,.T.);
#156=EDGE_CURVE('',#128,#130,#50,.T.);
#157=EDGE_CURVE('',#131,#132,#51,.T.);
#158=EDGE_CURVE('',#133,#131,#52,.T.);
#159=EDGE_CURVE('',#128,#133,#53,.T.);
#160=EDGE_CURVE('',#132,#130,#54,.T.);
#161=EDGE_CURVE('',#134,#135,#55,.T.);
#162=EDGE_CURVE('',#129,#134,#56,.T.);
#163=EDGE_CURVE('',#136,#127,#57,.T.);
#164=EDGE_CURVE('',#135,#136,#58,.T.);
#165=EDGE_CURVE('',#137,#133,#59,.T.);
#166=EDGE_CURVE('',#138,#137,#60,.T.);
#167=EDGE_CURVE('',#128,#138,#61,.F.);
#168=EDGE_CURVE('',#132,#139,#62,.T.);
#169=EDGE_CURVE('',#139,#140,#63,.T.);
#170=EDGE_CURVE('',#131,#140,#64,.T.);
#171=EDGE_CURVE('',#141,#127,#65,.F.);
#172=EDGE_CURVE('',#141,#142,#66,.F.);
#173=EDGE_CURVE('',#136,#142,#67,.T.);
#174=EDGE_CURVE('',#143,#141,#68,.F.);
#175=EDGE_CURVE('',#143,#144,#69,.F.);
#176=EDGE_CURVE('',#142,#144,#70,.T.);
#177=EDGE_CURVE('',#145,#143,#71,.F.);
#178=EDGE_CURVE('',#145,#146,#72,.F.);
#179=EDGE_CURVE('',#144,#146,#73,.T.);
#180=EDGE_CURVE('',#138,#145,#74,.F.);
#181=EDGE_CURVE('',#146,#137,#75,.T.);
#182=EDGE_CURVE('',#147,#135,#76,.T.);
#183=EDGE_CURVE('',#148,#147,#77,.T.);
#184=EDGE_CURVE('',#148,#134,#78,.T.);
#185=EDGE_CURVE('',#149,#148,#79,.T.);
#186=EDGE_CURVE('',#150,#147,#80,.T.);
#187=EDGE_CURVE('',#149,#150,#81,.T.);
#188=EDGE_CURVE('',#151,#149,#82,.T.);
#189=EDGE_CURVE('',#152,#150,#83,.T.);
#190=EDGE_CURVE('',#151,#152,#84,.T.);
#191=EDGE_CURVE('',#139,#151,#85,.T.);
#192=EDGE_CURVE('',#140,#152,#86,.T.);
#193=ORIENTED_EDGE('',*,*,#153,.F.);
#194=ORIENTED_EDGE('',*,*,#154,.F.);
#195=ORIENTED_EDGE('',*,*,#155,.F.);
#196=ORIENTED_EDGE('',*,*,#156,.F.);
#197=ORIENTED_EDGE('',*,*,#157,.F.);
#198=ORIENTED_EDGE('',*,*,#158,.F.);
#199=ORIENTED_EDGE('',*,*,#159,.F.);
#200=ORIENTED_EDGE('',*,*,#156,.T.);
#201=ORIENTED_EDGE('',*,*,#160,.F.);
#202=ORIENTED_EDGE('',*,*,#161,.F.);
#203=ORIENTED_EDGE('',*,*,#162,.F.);
#204=ORIENTED_EDGE('',*,*,#154,.T.);
#205=ORIENTED_EDGE('',*,*,#163,.F.);
#206=ORIENTED_EDGE('',*,*,#164,.F.);
#207=ORIENTED_EDGE('',*,*,#159,.T.);
#208=ORIENTED_EDGE('',*,*,#165,.F.);
#209=ORIENTED_EDGE('',*,*,#166,.F.);
#210=ORIENTED_EDGE('',*,*,#167,.F.);
#211=ORIENTED_EDGE('',*,*,#157,.T.);
#212=ORIENTED_EDGE('',*,*,#168,.T.);
#213=ORIENTED_EDGE('',*,*,#169,.T.);
#214=ORIENTED_EDGE('',*,*,#170,.F.);
#215=ORIENTED_EDGE('',*,*,#163,.T.);
#216=ORIENTED_EDGE('',*,*,#171,.F.);
#217=ORIENTED_EDGE('',*,*,#172,.T.);
#218=ORIENTED_EDGE('',*,*,#173,.F.);
#219=ORIENTED_EDGE('',*,*,#174,.F.);
#220=ORIENTED_EDGE('',*,*,#175,.T.);
#221=ORIENTED_EDGE('',*,*,#176,.F.);
#222=ORIENTED_EDGE('',*,*,#172,.F.);
#223=ORIENTED_EDGE('',*,*,#177,.F.);
#224=ORIENTED_EDGE('',*,*,#178,.T.);
#225=ORIENTED_EDGE('',*,*,#179,.F.);
#226=ORIENTED_EDGE('',*,*,#175,.F.);
#227=ORIENTED_EDGE('',*,*,#180,.F.);
#228=ORIENTED_EDGE('',*,*,#166,.T.);
#229=ORIENTED_EDGE('',*,*,#181,.F.);
#230=ORIENTED_EDGE('',*,*,#178,.F.);
#231=ORIENTED_EDGE('',*,*,#180,.T.);
#232=ORIENTED_EDGE('',*,*,#177,.T.);
#233=ORIENTED_EDGE('',*,*,#174,.T.);
#234=ORIENTED_EDGE('',*,*,#171,.T.);
#235=ORIENTED_EDGE('',*,*,#153,.T.);
#236=ORIENTED_EDGE('',*,*,#167,.T.);
#237=ORIENTED_EDGE('',*,*,#161,.T.);
#238=ORIENTED_EDGE('',*,*,#182,.F.);
#239=ORIENTED_EDGE('',*,*,#183,.F.);
#240=ORIENTED_EDGE('',*,*,#184,.T.);
#241=ORIENTED_EDGE('',*,*,#185,.T.);
#242=ORIENTED_EDGE('',*,*,#183,.T.);
#243=ORIENTED_EDGE('',*,*,#186,.F.);
#244=ORIENTED_EDGE('',*,*,#187,.F.);
#245=ORIENTED_EDGE('',*,*,#188,.T.);
#246=ORIENTED_EDGE('',*,*,#187,.T.);
#247=ORIENTED_EDGE('',*,*,#189,.F.);
#248=ORIENTED_EDGE('',*,*,#190,.F.);
#249=ORIENTED_EDGE('',*,*,#191,.T.);
#250=ORIENTED_EDGE('',*,*,#190,.T.);
#251=ORIENTED_EDGE('',*,*,#192,.F.);
#252=ORIENTED_EDGE('',*,*,#169,.F.);
#253=ORIENTED_EDGE('',*,*,#164,.T.);
#254=ORIENTED_EDGE('',*,*,#173,.T.);
#255=ORIENTED_EDGE('',*,*,#176,.T.);
#256=ORIENTED_EDGE('',*,*,#179,.T.);
#257=ORIENTED_EDGE('',*,*,#181,.T.);
#258=ORIENTED_EDGE('',*,*,#165,.T.);
#259=ORIENTED_EDGE('',*,*,#158,.T.);
#260=ORIENTED_EDGE('',*,*,#170,.T.);
#261=ORIENTED_EDGE('',*,*,#192,.T.);
#262=ORIENTED_EDGE('',*,*,#189,.T.);
#263=ORIENTED_EDGE('',*,*,#186,.T.);
#264=ORIENTED_EDGE('',*,*,#182,.T.);
#265=ORIENTED_EDGE('',*,*,#162,.T.);
#266=ORIENTED_EDGE('',*,*,#184,.F.);
#267=ORIENTED_EDGE('',*,*,#185,.F.);
#268=ORIENTED_EDGE('',*,*,#188,.F.);
#269=ORIENTED_EDGE('',*,*,#191,.F.);
#270=ORIENTED_EDGE('',*,*,#168,.F.);
#271=ORIENTED_EDGE('',*,*,#160,.T.);
#272=ORIENTED_EDGE('',*,*,#155,.T.);
#273=PLANE('',#319);
#274=PLANE('',#320);
#275=PLANE('',#321);
#276=PLANE('',#322);
#277=PLANE('',#323);
#278=PLANE('',#324);
#279=PLANE('',#325);
#280=PLANE('',#326);
#281=PLANE('',#327);
#282=PLANE('',#328);
#283=PLANE('',#329);
#284=PLANE('',#330);
#285=PLANE('',#331);
#286=PLANE('',#332);
#287=PLANE('',#333);
#288=PLANE('',#334);
#289=ADVANCED_FACE('',(#15),#273,.F.);
#290=ADVANCED_FACE('',(#16),#274,.F.);
#291=ADVANCED_FACE('',(#17),#275,.F.);
#292=ADVANCED_FACE('',(#18),#276,.F.);
#293=ADVANCED_FACE('',(#19),#277,.T.);
#294=ADVANCED_FACE('',(#20),#278,.F.);
#295=ADVANCED_FACE('',(#21),#279,.F.);
#296=ADVANCED_FACE('',(#22),#280,.F.);
#297=ADVANCED_FACE('',(#23),#281,.F.);
#298=ADVANCED_FACE('',(#24),#282,.T.);
#299=ADVANCED_FACE('',(#25),#283,.T.);
#300=ADVANCED_FACE('',(#26),#284,.T.);
#301=ADVANCED_FACE('',(#27),#285,.T.);
#302=ADVANCED_FACE('',(#28),#286,.T.);
#303=ADVANCED_FACE('',(#29),#287,.T.);
#304=ADVANCED_FACE('',(#30),#288,.F.);
#305=CLOSED_SHELL('',(#289,#290,#291,#292,#293,#294,#295,#296,#297,#298,
#299,#300,#301,#302,#303,#304));
#306=DERIVED_UNIT_ELEMENT(#308,1.);
#307=DERIVED_UNIT_ELEMENT(#497,-3.);
#308=(
MASS_UNIT()
NAMED_UNIT(*)
SI_UNIT(.KILO.,.GRAM.)
);
#309=DERIVED_UNIT((#306,#307));
#310=MEASURE_REPRESENTATION_ITEM('density measure',
POSITIVE_RATIO_MEASURE(7850.),#309);
#311=PROPERTY_DEFINITION_REPRESENTATION(#316,#313);
#312=PROPERTY_DEFINITION_REPRESENTATION(#317,#314);
#313=REPRESENTATION('material name',(#315),#494);
#314=REPRESENTATION('density',(#310),#494);
#315=DESCRIPTIVE_REPRESENTATION_ITEM('Steel','Steel');
#316=PROPERTY_DEFINITION('material property','material name',#504);
#317=PROPERTY_DEFINITION('material property','density of part',#504);
#318=AXIS2_PLACEMENT_3D('',#409,#335,#336);
#319=AXIS2_PLACEMENT_3D('',#410,#337,#338);
#320=AXIS2_PLACEMENT_3D('',#419,#343,#344);
#321=AXIS2_PLACEMENT_3D('',#427,#349,#350);
#322=AXIS2_PLACEMENT_3D('',#435,#355,#356);
#323=AXIS2_PLACEMENT_3D('',#441,#360,#361);
#324=AXIS2_PLACEMENT_3D('',#447,#365,#366);
#325=AXIS2_PLACEMENT_3D('',#453,#370,#371);
#326=AXIS2_PLACEMENT_3D('',#459,#375,#376);
#327=AXIS2_PLACEMENT_3D('',#465,#380,#381);
#328=AXIS2_PLACEMENT_3D('',#468,#384,#385);
#329=AXIS2_PLACEMENT_3D('',#469,#386,#387);
#330=AXIS2_PLACEMENT_3D('',#475,#391,#392);
#331=AXIS2_PLACEMENT_3D('',#481,#396,#397);
#332=AXIS2_PLACEMENT_3D('',#487,#401,#402);
#333=AXIS2_PLACEMENT_3D('',#490,#405,#406);
#334=AXIS2_PLACEMENT_3D('',#491,#407,#408);
#335=DIRECTION('axis',(0.,0.,1.));
#336=DIRECTION('refdir',(1.,0.,0.));
#337=DIRECTION('center_axis',(0.,0.,1.));
#338=DIRECTION('ref_axis',(1.,0.,0.));
#339=DIRECTION('',(1.,0.,0.));
#340=DIRECTION('',(0.,1.,0.));
#341=DIRECTION('',(1.,0.,0.));
#342=DIRECTION('',(0.,-1.,0.));
#343=DIRECTION('center_axis',(-1.,0.,0.));
#344=DIRECTION('ref_axis',(0.,-1.,0.));
#345=DIRECTION('',(0.,-1.,0.));
#346=DIRECTION('',(0.,0.,-1.));
#347=DIRECTION('',(0.,1.,0.));
#348=DIRECTION('',(0.,0.,1.));
#349=DIRECTION('center_axis',(1.,0.,0.));
#350=DIRECTION('ref_axis',(0.,1.,0.));
#351=DIRECTION('',(0.,1.,0.));
#352=DIRECTION('',(0.,0.,-1.));
#353=DIRECTION('',(0.,-1.,0.));
#354=DIRECTION('',(0.,0.,1.));
#355=DIRECTION('center_axis',(0.,0.,-1.));
#356=DIRECTION('ref_axis',(-1.,0.,0.));
#357=DIRECTION('',(1.,0.,0.));
#358=DIRECTION('',(0.,1.,0.));
#359=DIRECTION('',(1.,0.,0.));
#360=DIRECTION('center_axis',(0.,0.,-1.));
#361=DIRECTION('ref_axis',(-1.,0.,0.));
#362=DIRECTION('',(-1.,0.,0.));
#363=DIRECTION('',(0.,1.,0.));
#364=DIRECTION('',(-1.,0.,0.));
#365=DIRECTION('center_axis',(0.,0.,-1.));
#366=DIRECTION('ref_axis',(-1.,0.,0.));
#367=DIRECTION('',(1.,0.,0.));
#368=DIRECTION('',(0.,-1.,0.));
#369=DIRECTION('',(1.,0.,0.));
#370=DIRECTION('center_axis',(1.,0.,0.));
#371=DIRECTION('ref_axis',(0.,0.,-1.));
#372=DIRECTION('',(0.,0.,1.));
#373=DIRECTION('',(0.,-1.,0.));
#374=DIRECTION('',(0.,0.,1.));
#375=DIRECTION('center_axis',(0.,0.,1.));
#376=DIRECTION('ref_axis',(1.,0.,0.));
#377=DIRECTION('',(-1.,0.,0.));
#378=DIRECTION('',(0.,-1.,0.));
#379=DIRECTION('',(-1.,0.,0.));
#380=DIRECTION('center_axis',(-1.,0.,0.));
#381=DIRECTION('ref_axis',(0.,0.,1.));
#382=DIRECTION('',(0.,0.,-1.));
#383=DIRECTION('',(0.,0.,-1.));
#384=DIRECTION('center_axis',(0.,1.,0.));
#385=DIRECTION('ref_axis',(1.,0.,0.));
#386=DIRECTION('center_axis',(0.,0.,-1.));
#387=DIRECTION('ref_axis',(-1.,0.,0.));
#388=DIRECTION('',(-1.,0.,0.));
#389=DIRECTION('',(0.,1.,0.));
#390=DIRECTION('',(-1.,0.,0.));
#391=DIRECTION('center_axis',(1.,0.,0.));
#392=DIRECTION('ref_axis',(0.,0.,-1.));
#393=DIRECTION('',(0.,0.,-1.));
#394=DIRECTION('',(0.,0.,-1.));
#395=DIRECTION('',(0.,1.,0.));
#396=DIRECTION('center_axis',(0.,0.,1.));
#397=DIRECTION('ref_axis',(1.,0.,0.));
#398=DIRECTION('',(1.,0.,0.));
#399=DIRECTION('',(1.,0.,0.));
#400=DIRECTION('',(0.,1.,0.));
#401=DIRECTION('center_axis',(-1.,0.,0.));
#402=DIRECTION('ref_axis',(0.,0.,1.));
#403=DIRECTION('',(0.,0.,1.));
#404=DIRECTION('',(0.,0.,1.));
#405=DIRECTION('center_axis',(0.,1.,0.));
#406=DIRECTION('ref_axis',(0.,0.,1.));
#407=DIRECTION('center_axis',(0.,1.,0.));
#408=DIRECTION('ref_axis',(1.,0.,0.));
#409=CARTESIAN_POINT('',(0.,0.,0.));
#410=CARTESIAN_POINT('Origin',(95.5000014230609,4.00000005960464,-69.8));
#411=CARTESIAN_POINT('',(105.000001564622,2.,-69.8));
#412=CARTESIAN_POINT('',(86.0000012814999,2.,-69.8));
#413=CARTESIAN_POINT('',(81.39,2.,-69.8));
#414=CARTESIAN_POINT('',(105.000001564622,0.,-69.8));
#415=CARTESIAN_POINT('',(105.000001564622,0.,-69.8));
#416=CARTESIAN_POINT('',(86.0000012814999,0.,-69.8));
#417=CARTESIAN_POINT('',(74.8800007115304,0.,-69.8));
#418=CARTESIAN_POINT('',(86.0000012814999,8.00000011920929,-69.8));
#419=CARTESIAN_POINT('Origin',(86.0000012814999,8.00000011920929,-71.8));
#420=CARTESIAN_POINT('',(86.0000012814999,8.00000011920929,-71.8));
#421=CARTESIAN_POINT('',(86.0000012814999,0.,-71.8));
#422=CARTESIAN_POINT('',(86.0000012814999,4.00000005960464,-71.8));
#423=CARTESIAN_POINT('',(86.0000012814999,8.00000011920929,-69.8));
#424=CARTESIAN_POINT('',(86.0000012814999,8.,-53.85));
#425=CARTESIAN_POINT('',(86.0000012814999,4.00000005960464,-69.8));
#426=CARTESIAN_POINT('',(86.0000012814999,0.,-53.85));
#427=CARTESIAN_POINT('Origin',(105.000001564622,0.,-71.8));
#428=CARTESIAN_POINT('',(105.000001564622,0.,-71.8));
#429=CARTESIAN_POINT('',(105.000001564622,8.00000011920929,-71.8));
#430=CARTESIAN_POINT('',(105.000001564622,0.,-71.8));
#431=CARTESIAN_POINT('',(105.000001564622,0.,-53.85));
#432=CARTESIAN_POINT('',(105.000001564622,8.00000011920929,-69.8));
#433=CARTESIAN_POINT('',(105.000001564622,0.,-69.8));
#434=CARTESIAN_POINT('',(105.000001564622,8.,-53.85));
#435=CARTESIAN_POINT('Origin',(108.52,0.,-69.8));
#436=CARTESIAN_POINT('',(2.,8.,-69.8));
#437=CARTESIAN_POINT('',(81.39,8.,-69.8));
#438=CARTESIAN_POINT('',(2.,2.,-69.8));
#439=CARTESIAN_POINT('',(2.,0.,-69.8));
#440=CARTESIAN_POINT('',(81.39,2.,-69.8));
#441=CARTESIAN_POINT('Origin',(108.52,0.,-71.8));
#442=CARTESIAN_POINT('',(0.,0.,-71.8));
#443=CARTESIAN_POINT('',(108.52,0.,-71.8));
#444=CARTESIAN_POINT('',(0.,8.,-71.8));
#445=CARTESIAN_POINT('',(0.,0.,-71.8));
#446=CARTESIAN_POINT('',(108.52,8.,-71.8));
#447=CARTESIAN_POINT('Origin',(108.52,0.,-69.8));
#448=CARTESIAN_POINT('',(106.52,2.,-69.8));
#449=CARTESIAN_POINT('',(81.39,2.,-69.8));
#450=CARTESIAN_POINT('',(106.52,8.,-69.8));
#451=CARTESIAN_POINT('',(106.52,0.,-69.8));
#452=CARTESIAN_POINT('',(81.39,8.,-69.8));
#453=CARTESIAN_POINT('Origin',(106.52,0.,0.));
#454=CARTESIAN_POINT('',(106.52,2.,-2.));
#455=CARTESIAN_POINT('',(106.52,2.,-17.95));
#456=CARTESIAN_POINT('',(106.52,8.,-2.));
#457=CARTESIAN_POINT('',(106.52,0.,-2.));
#458=CARTESIAN_POINT('',(106.52,8.,-17.95));
#459=CARTESIAN_POINT('Origin',(0.,0.,-2.));
#460=CARTESIAN_POINT('',(2.,2.,-2.));
#461=CARTESIAN_POINT('',(27.13,2.,-2.));
#462=CARTESIAN_POINT('',(2.,8.,-2.));
#463=CARTESIAN_POINT('',(2.,0.,-2.));
#464=CARTESIAN_POINT('',(27.13,8.,-2.));
#465=CARTESIAN_POINT('Origin',(2.,0.,-71.8));
#466=CARTESIAN_POINT('',(2.,2.,-53.85));
#467=CARTESIAN_POINT('',(2.,8.,-53.85));
#468=CARTESIAN_POINT('Origin',(54.26,2.,-35.9));
#469=CARTESIAN_POINT('Origin',(108.52,0.,-71.8));
#470=CARTESIAN_POINT('',(108.52,8.,-71.8));
#471=CARTESIAN_POINT('',(108.52,8.,-71.8));
#472=CARTESIAN_POINT('',(108.52,0.,-71.8));
#473=CARTESIAN_POINT('',(108.52,0.,-71.8));
#474=CARTESIAN_POINT('',(108.52,0.,-71.8));
#475=CARTESIAN_POINT('Origin',(108.52,0.,0.));
#476=CARTESIAN_POINT('',(108.52,0.,0.));
#477=CARTESIAN_POINT('',(108.52,0.,0.));
#478=CARTESIAN_POINT('',(108.52,8.,0.));
#479=CARTESIAN_POINT('',(108.52,8.,0.));
#480=CARTESIAN_POINT('',(108.52,0.,0.));
#481=CARTESIAN_POINT('Origin',(0.,0.,0.));
#482=CARTESIAN_POINT('',(0.,0.,0.));
#483=CARTESIAN_POINT('',(0.,0.,0.));
#484=CARTESIAN_POINT('',(0.,8.,0.));
#485=CARTESIAN_POINT('',(0.,8.,0.));
#486=CARTESIAN_POINT('',(0.,0.,0.));
#487=CARTESIAN_POINT('Origin',(0.,0.,-71.8));
#488=CARTESIAN_POINT('',(0.,0.,-71.8));
#489=CARTESIAN_POINT('',(0.,8.,-71.8));
#490=CARTESIAN_POINT('Origin',(54.26,8.,-35.9));
#491=CARTESIAN_POINT('Origin',(54.26,0.,-35.9));
#492=UNCERTAINTY_MEASURE_WITH_UNIT(LENGTH_MEASURE(0.01),#496,
'DISTANCE_ACCURACY_VALUE',
'Maximum model space distance between geometric entities at asserted c
onnectivities');
#493=UNCERTAINTY_MEASURE_WITH_UNIT(LENGTH_MEASURE(0.01),#496,
'DISTANCE_ACCURACY_VALUE',
'Maximum model space distance between geometric entities at asserted c
onnectivities');
#494=(
GEOMETRIC_REPRESENTATION_CONTEXT(3)
GLOBAL_UNCERTAINTY_ASSIGNED_CONTEXT((#492))
GLOBAL_UNIT_ASSIGNED_CONTEXT((#496,#498,#499))
REPRESENTATION_CONTEXT('','3D')
);
#495=(
GEOMETRIC_REPRESENTATION_CONTEXT(3)
GLOBAL_UNCERTAINTY_ASSIGNED_CONTEXT((#493))
GLOBAL_UNIT_ASSIGNED_CONTEXT((#496,#498,#499))
REPRESENTATION_CONTEXT('','3D')
);
#496=(
LENGTH_UNIT()
NAMED_UNIT(*)
SI_UNIT(.MILLI.,.METRE.)
);
#497=(
LENGTH_UNIT()
NAMED_UNIT(*)
SI_UNIT($,.METRE.)
);
#498=(
NAMED_UNIT(*)
PLANE_ANGLE_UNIT()
SI_UNIT($,.RADIAN.)
);
#499=(
NAMED_UNIT(*)
SI_UNIT($,.STERADIAN.)
SOLID_ANGLE_UNIT()
);
#500=SHAPE_DEFINITION_REPRESENTATION(#501,#502);
#501=PRODUCT_DEFINITION_SHAPE('',$,#504);
#502=SHAPE_REPRESENTATION('',(#318),#494);
#503=PRODUCT_DEFINITION_CONTEXT('part definition',#508,'design');
#504=PRODUCT_DEFINITION('2026-08-25-01-35-53-240','FusionComponent',#505,
#503);
#505=PRODUCT_DEFINITION_FORMATION('',$,#510);
#506=PRODUCT_RELATED_PRODUCT_CATEGORY('FusionComponent',
'FusionComponent',(#510));
#507=APPLICATION_PROTOCOL_DEFINITION('international standard',
'automotive_design',2009,#508);
#508=APPLICATION_CONTEXT(
'Core Data for Automotive Mechanical Design Process');
#509=PRODUCT_CONTEXT('part definition',#508,'mechanical');
#510=PRODUCT('2026-08-25-01-35-53-240','FusionComponent',$,(#509));
#511=PRESENTATION_STYLE_ASSIGNMENT((#512));
#512=SURFACE_STYLE_USAGE(.BOTH.,#513);
#513=SURFACE_SIDE_STYLE('',(#514));
#514=SURFACE_STYLE_FILL_AREA(#515);
#515=FILL_AREA_STYLE('Steel - Satin',(#516));
#516=FILL_AREA_STYLE_COLOUR('Steel - Satin',#517);
#517=COLOUR_RGB('Steel - Satin',0.627450980392157,0.627450980392157,0.627450980392157);
ENDSEC;
END-ISO-10303-21;
