ISO-10303-21;
HEADER;
/* Generated by software containing ST-Developer
 * from STEP Tools, Inc. (www.steptools.com) 
 */

FILE_DESCRIPTION(
/* description */ (''),
/* implementation_level */ '2;1');

FILE_NAME(
/* name */ 'bottom.step',
/* time_stamp */ '2026-08-25T00:18:09+03:00',
/* author */ (''),
/* organization */ (''),
/* preprocessor_version */ 'ST-DEVELOPER v20.1',
/* originating_system */ 'Autodesk Translation Framework v15.8.0.0',
/* authorisation */ '');

FILE_SCHEMA (('AUTOMOTIVE_DESIGN { 1 0 10303 214 3 1 1 }'));
ENDSEC;

DATA;
#10=MECHANICAL_DESIGN_GEOMETRIC_PRESENTATION_REPRESENTATION('',(#13),#495);
#11=SHAPE_REPRESENTATION_RELATIONSHIP('SRR','None',#502,#12);
#12=ADVANCED_BREP_SHAPE_REPRESENTATION('',(#14),#494);
#13=STYLED_ITEM('',(#511),#14);
#14=MANIFOLD_SOLID_BREP('Body1',#305);
#15=FACE_OUTER_BOUND('',#31,.T.);
#16=FACE_OUTER_BOUND('',#32,.T.);
#17=FACE_OUTER_BOUND('',#33,.T.);
#18=FACE_OUTER_BOUND('',#34,.T.);
#19=FACE_OUTER_BOUND('',#35,.T.);
#20=FACE_OUTER_BOUND('',#36,.T.);
#21=FACE_OUTER_BOUND('',#37,.T.);
#22=FACE_OUTER_BOUND('',#38,.T.);
#23=FACE_OUTER_BOUND('',#39,.T.);
#24=FACE_OUTER_BOUND('',#40,.T.);
#25=FACE_OUTER_BOUND('',#41,.T.);
#26=FACE_OUTER_BOUND('',#42,.T.);
#27=FACE_OUTER_BOUND('',#43,.T.);
#28=FACE_OUTER_BOUND('',#44,.T.);
#29=FACE_OUTER_BOUND('',#45,.T.);
#30=FACE_OUTER_BOUND('',#46,.T.);
#31=EDGE_LOOP('',(#193,#194,#195,#196));
#32=EDGE_LOOP('',(#197,#198,#199,#200,#201,#202,#203,#204,#205,#206,#207,
#208));
#33=EDGE_LOOP('',(#209,#210,#211,#212));
#34=EDGE_LOOP('',(#213,#214,#215,#216));
#35=EDGE_LOOP('',(#217,#218,#219,#220,#221));
#36=EDGE_LOOP('',(#222,#223,#224,#225,#226));
#37=EDGE_LOOP('',(#227,#228,#229,#230,#231,#232,#233,#234));
#38=EDGE_LOOP('',(#235,#236,#237,#238));
#39=EDGE_LOOP('',(#239,#240,#241,#242));
#40=EDGE_LOOP('',(#243,#244,#245,#246));
#41=EDGE_LOOP('',(#247,#248,#249,#250));
#42=EDGE_LOOP('',(#251,#252,#253,#254,#255,#256));
#43=EDGE_LOOP('',(#257,#258,#259,#260));
#44=EDGE_LOOP('',(#261,#262,#263,#264));
#45=EDGE_LOOP('',(#265,#266,#267,#268));
#46=EDGE_LOOP('',(#269,#270,#271,#272));
#47=LINE('',#413,#87);
#48=LINE('',#415,#88);
#49=LINE('',#417,#89);
#50=LINE('',#418,#90);
#51=LINE('',#422,#91);
#52=LINE('',#424,#92);
#53=LINE('',#426,#93);
#54=LINE('',#428,#94);
#55=LINE('',#430,#95);
#56=LINE('',#432,#96);
#57=LINE('',#434,#97);
#58=LINE('',#436,#98);
#59=LINE('',#438,#99);
#60=LINE('',#440,#100);
#61=LINE('',#442,#101);
#62=LINE('',#443,#102);
#63=LINE('',#445,#103);
#64=LINE('',#447,#104);
#65=LINE('',#448,#105);
#66=LINE('',#450,#106);
#67=LINE('',#452,#107);
#68=LINE('',#453,#108);
#69=LINE('',#456,#109);
#70=LINE('',#457,#110);
#71=LINE('',#460,#111);
#72=LINE('',#461,#112);
#73=LINE('',#464,#113);
#74=LINE('',#466,#114);
#75=LINE('',#468,#115);
#76=LINE('',#470,#116);
#77=LINE('',#471,#117);
#78=LINE('',#473,#118);
#79=LINE('',#476,#119);
#80=LINE('',#477,#120);
#81=LINE('',#480,#121);
#82=LINE('',#481,#122);
#83=LINE('',#483,#123);
#84=LINE('',#486,#124);
#85=LINE('',#488,#125);
#86=LINE('',#490,#126);
#87=VECTOR('',#339,10.);
#88=VECTOR('',#340,10.);
#89=VECTOR('',#341,10.);
#90=VECTOR('',#342,10.);
#91=VECTOR('',#345,10.);
#92=VECTOR('',#346,10.);
#93=VECTOR('',#347,10.);
#94=VECTOR('',#348,10.);
#95=VECTOR('',#349,10.);
#96=VECTOR('',#350,10.);
#97=VECTOR('',#351,10.);
#98=VECTOR('',#352,10.);
#99=VECTOR('',#353,10.);
#100=VECTOR('',#354,10.);
#101=VECTOR('',#355,10.);
#102=VECTOR('',#356,10.);
#103=VECTOR('',#359,10.);
#104=VECTOR('',#360,10.);
#105=VECTOR('',#361,10.);
#106=VECTOR('',#364,10.);
#107=VECTOR('',#365,10.);
#108=VECTOR('',#366,10.);
#109=VECTOR('',#369,10.);
#110=VECTOR('',#370,10.);
#111=VECTOR('',#373,10.);
#112=VECTOR('',#374,10.);
#113=VECTOR('',#377,10.);
#114=VECTOR('',#378,10.);
#115=VECTOR('',#379,10.);
#116=VECTOR('',#380,10.);
#117=VECTOR('',#381,10.);
#118=VECTOR('',#384,10.);
#119=VECTOR('',#387,10.);
#120=VECTOR('',#388,10.);
#121=VECTOR('',#391,10.);
#122=VECTOR('',#392,10.);
#123=VECTOR('',#395,10.);
#124=VECTOR('',#400,10.);
#125=VECTOR('',#403,10.);
#126=VECTOR('',#406,10.);
#127=VERTEX_POINT('',#411);
#128=VERTEX_POINT('',#412);
#129=VERTEX_POINT('',#414);
#130=VERTEX_POINT('',#416);
#131=VERTEX_POINT('',#420);
#132=VERTEX_POINT('',#421);
#133=VERTEX_POINT('',#423);
#134=VERTEX_POINT('',#425);
#135=VERTEX_POINT('',#427);
#136=VERTEX_POINT('',#429);
#137=VERTEX_POINT('',#431);
#138=VERTEX_POINT('',#433);
#139=VERTEX_POINT('',#435);
#140=VERTEX_POINT('',#437);
#141=VERTEX_POINT('',#439);
#142=VERTEX_POINT('',#441);
#143=VERTEX_POINT('',#446);
#144=VERTEX_POINT('',#451);
#145=VERTEX_POINT('',#455);
#146=VERTEX_POINT('',#459);
#147=VERTEX_POINT('',#463);
#148=VERTEX_POINT('',#465);
#149=VERTEX_POINT('',#467);
#150=VERTEX_POINT('',#469);
#151=VERTEX_POINT('',#475);
#152=VERTEX_POINT('',#479);
#153=EDGE_CURVE('',#127,#128,#47,.F.);
#154=EDGE_CURVE('',#129,#127,#48,.T.);
#155=EDGE_CURVE('',#130,#129,#49,.T.);
#156=EDGE_CURVE('',#128,#130,#50,.T.);
#157=EDGE_CURVE('',#131,#132,#51,.T.);
#158=EDGE_CURVE('',#132,#133,#52,.T.);
#159=EDGE_CURVE('',#133,#134,#53,.T.);
#160=EDGE_CURVE('',#134,#135,#54,.T.);
#161=EDGE_CURVE('',#135,#136,#55,.T.);
#162=EDGE_CURVE('',#136,#137,#56,.T.);
#163=EDGE_CURVE('',#137,#138,#57,.T.);
#164=EDGE_CURVE('',#138,#139,#58,.T.);
#165=EDGE_CURVE('',#139,#140,#59,.T.);
#166=EDGE_CURVE('',#140,#141,#60,.T.);
#167=EDGE_CURVE('',#141,#142,#61,.T.);
#168=EDGE_CURVE('',#142,#131,#62,.T.);
#169=EDGE_CURVE('',#128,#137,#63,.T.);
#170=EDGE_CURVE('',#143,#136,#64,.T.);
#171=EDGE_CURVE('',#128,#143,#65,.F.);
#172=EDGE_CURVE('',#132,#127,#66,.T.);
#173=EDGE_CURVE('',#144,#127,#67,.F.);
#174=EDGE_CURVE('',#144,#133,#68,.F.);
#175=EDGE_CURVE('',#145,#131,#69,.T.);
#176=EDGE_CURVE('',#129,#145,#70,.T.);
#177=EDGE_CURVE('',#138,#146,#71,.T.);
#178=EDGE_CURVE('',#146,#130,#72,.T.);
#179=EDGE_CURVE('',#147,#145,#73,.T.);
#180=EDGE_CURVE('',#148,#147,#74,.T.);
#181=EDGE_CURVE('',#149,#148,#75,.T.);
#182=EDGE_CURVE('',#150,#149,#76,.T.);
#183=EDGE_CURVE('',#146,#150,#77,.T.);
#184=EDGE_CURVE('',#147,#142,#78,.T.);
#185=EDGE_CURVE('',#151,#144,#79,.F.);
#186=EDGE_CURVE('',#151,#134,#80,.F.);
#187=EDGE_CURVE('',#152,#151,#81,.F.);
#188=EDGE_CURVE('',#152,#135,#82,.F.);
#189=EDGE_CURVE('',#143,#152,#83,.F.);
#190=EDGE_CURVE('',#150,#139,#84,.T.);
#191=EDGE_CURVE('',#148,#141,#85,.T.);
#192=EDGE_CURVE('',#149,#140,#86,.T.);
#193=ORIENTED_EDGE('',*,*,#153,.F.);
#194=ORIENTED_EDGE('',*,*,#154,.F.);
#195=ORIENTED_EDGE('',*,*,#155,.F.);
#196=ORIENTED_EDGE('',*,*,#156,.F.);
#197=ORIENTED_EDGE('',*,*,#157,.T.);
#198=ORIENTED_EDGE('',*,*,#158,.T.);
#199=ORIENTED_EDGE('',*,*,#159,.T.);
#200=ORIENTED_EDGE('',*,*,#160,.T.);
#201=ORIENTED_EDGE('',*,*,#161,.T.);
#202=ORIENTED_EDGE('',*,*,#162,.T.);
#203=ORIENTED_EDGE('',*,*,#163,.T.);
#204=ORIENTED_EDGE('',*,*,#164,.T.);
#205=ORIENTED_EDGE('',*,*,#165,.T.);
#206=ORIENTED_EDGE('',*,*,#166,.T.);
#207=ORIENTED_EDGE('',*,*,#167,.T.);
#208=ORIENTED_EDGE('',*,*,#168,.T.);
#209=ORIENTED_EDGE('',*,*,#169,.T.);
#210=ORIENTED_EDGE('',*,*,#162,.F.);
#211=ORIENTED_EDGE('',*,*,#170,.F.);
#212=ORIENTED_EDGE('',*,*,#171,.F.);
#213=ORIENTED_EDGE('',*,*,#172,.T.);
#214=ORIENTED_EDGE('',*,*,#173,.F.);
#215=ORIENTED_EDGE('',*,*,#174,.T.);
#216=ORIENTED_EDGE('',*,*,#158,.F.);
#217=ORIENTED_EDGE('',*,*,#175,.F.);
#218=ORIENTED_EDGE('',*,*,#176,.F.);
#219=ORIENTED_EDGE('',*,*,#154,.T.);
#220=ORIENTED_EDGE('',*,*,#172,.F.);
#221=ORIENTED_EDGE('',*,*,#157,.F.);
#222=ORIENTED_EDGE('',*,*,#177,.F.);
#223=ORIENTED_EDGE('',*,*,#163,.F.);
#224=ORIENTED_EDGE('',*,*,#169,.F.);
#225=ORIENTED_EDGE('',*,*,#156,.T.);
#226=ORIENTED_EDGE('',*,*,#178,.F.);
#227=ORIENTED_EDGE('',*,*,#176,.T.);
#228=ORIENTED_EDGE('',*,*,#179,.F.);
#229=ORIENTED_EDGE('',*,*,#180,.F.);
#230=ORIENTED_EDGE('',*,*,#181,.F.);
#231=ORIENTED_EDGE('',*,*,#182,.F.);
#232=ORIENTED_EDGE('',*,*,#183,.F.);
#233=ORIENTED_EDGE('',*,*,#178,.T.);
#234=ORIENTED_EDGE('',*,*,#155,.T.);
#235=ORIENTED_EDGE('',*,*,#175,.T.);
#236=ORIENTED_EDGE('',*,*,#168,.F.);
#237=ORIENTED_EDGE('',*,*,#184,.F.);
#238=ORIENTED_EDGE('',*,*,#179,.T.);
#239=ORIENTED_EDGE('',*,*,#185,.F.);
#240=ORIENTED_EDGE('',*,*,#186,.T.);
#241=ORIENTED_EDGE('',*,*,#159,.F.);
#242=ORIENTED_EDGE('',*,*,#174,.F.);
#243=ORIENTED_EDGE('',*,*,#187,.F.);
#244=ORIENTED_EDGE('',*,*,#188,.T.);
#245=ORIENTED_EDGE('',*,*,#160,.F.);
#246=ORIENTED_EDGE('',*,*,#186,.F.);
#247=ORIENTED_EDGE('',*,*,#189,.F.);
#248=ORIENTED_EDGE('',*,*,#170,.T.);
#249=ORIENTED_EDGE('',*,*,#161,.F.);
#250=ORIENTED_EDGE('',*,*,#188,.F.);
#251=ORIENTED_EDGE('',*,*,#189,.T.);
#252=ORIENTED_EDGE('',*,*,#187,.T.);
#253=ORIENTED_EDGE('',*,*,#185,.T.);
#254=ORIENTED_EDGE('',*,*,#173,.T.);
#255=ORIENTED_EDGE('',*,*,#153,.T.);
#256=ORIENTED_EDGE('',*,*,#171,.T.);
#257=ORIENTED_EDGE('',*,*,#177,.T.);
#258=ORIENTED_EDGE('',*,*,#183,.T.);
#259=ORIENTED_EDGE('',*,*,#190,.T.);
#260=ORIENTED_EDGE('',*,*,#164,.F.);
#261=ORIENTED_EDGE('',*,*,#180,.T.);
#262=ORIENTED_EDGE('',*,*,#184,.T.);
#263=ORIENTED_EDGE('',*,*,#167,.F.);
#264=ORIENTED_EDGE('',*,*,#191,.F.);
#265=ORIENTED_EDGE('',*,*,#181,.T.);
#266=ORIENTED_EDGE('',*,*,#191,.T.);
#267=ORIENTED_EDGE('',*,*,#166,.F.);
#268=ORIENTED_EDGE('',*,*,#192,.F.);
#269=ORIENTED_EDGE('',*,*,#182,.T.);
#270=ORIENTED_EDGE('',*,*,#192,.T.);
#271=ORIENTED_EDGE('',*,*,#165,.F.);
#272=ORIENTED_EDGE('',*,*,#190,.F.);
#273=PLANE('',#319);
#274=PLANE('',#320);
#275=PLANE('',#321);
#276=PLANE('',#322);
#277=PLANE('',#323);
#278=PLANE('',#324);
#279=PLANE('',#325);
#280=PLANE('',#326);
#281=PLANE('',#327);
#282=PLANE('',#328);
#283=PLANE('',#329);
#284=PLANE('',#330);
#285=PLANE('',#331);
#286=PLANE('',#332);
#287=PLANE('',#333);
#288=PLANE('',#334);
#289=ADVANCED_FACE('',(#15),#273,.F.);
#290=ADVANCED_FACE('',(#16),#274,.T.);
#291=ADVANCED_FACE('',(#17),#275,.F.);
#292=ADVANCED_FACE('',(#18),#276,.F.);
#293=ADVANCED_FACE('',(#19),#277,.F.);
#294=ADVANCED_FACE('',(#20),#278,.F.);
#295=ADVANCED_FACE('',(#21),#279,.F.);
#296=ADVANCED_FACE('',(#22),#280,.T.);
#297=ADVANCED_FACE('',(#23),#281,.F.);
#298=ADVANCED_FACE('',(#24),#282,.F.);
#299=ADVANCED_FACE('',(#25),#283,.F.);
#300=ADVANCED_FACE('',(#26),#284,.T.);
#301=ADVANCED_FACE('',(#27),#285,.T.);
#302=ADVANCED_FACE('',(#28),#286,.T.);
#303=ADVANCED_FACE('',(#29),#287,.T.);
#304=ADVANCED_FACE('',(#30),#288,.T.);
#305=CLOSED_SHELL('',(#289,#290,#291,#292,#293,#294,#295,#296,#297,#298,
#299,#300,#301,#302,#303,#304));
#306=DERIVED_UNIT_ELEMENT(#308,1.);
#307=DERIVED_UNIT_ELEMENT(#497,-3.);
#308=(
MASS_UNIT()
NAMED_UNIT(*)
SI_UNIT(.KILO.,.GRAM.)
);
#309=DERIVED_UNIT((#306,#307));
#310=MEASURE_REPRESENTATION_ITEM('density measure',
POSITIVE_RATIO_MEASURE(7850.),#309);
#311=PROPERTY_DEFINITION_REPRESENTATION(#316,#313);
#312=PROPERTY_DEFINITION_REPRESENTATION(#317,#314);
#313=REPRESENTATION('material name',(#315),#494);
#314=REPRESENTATION('density',(#310),#494);
#315=DESCRIPTIVE_REPRESENTATION_ITEM('Steel','Steel');
#316=PROPERTY_DEFINITION('material property','material name',#504);
#317=PROPERTY_DEFINITION('material property','density of part',#504);
#318=AXIS2_PLACEMENT_3D('',#409,#335,#336);
#319=AXIS2_PLACEMENT_3D('',#410,#337,#338);
#320=AXIS2_PLACEMENT_3D('',#419,#343,#344);
#321=AXIS2_PLACEMENT_3D('',#444,#357,#358);
#322=AXIS2_PLACEMENT_3D('',#449,#362,#363);
#323=AXIS2_PLACEMENT_3D('',#454,#367,#368);
#324=AXIS2_PLACEMENT_3D('',#458,#371,#372);
#325=AXIS2_PLACEMENT_3D('',#462,#375,#376);
#326=AXIS2_PLACEMENT_3D('',#472,#382,#383);
#327=AXIS2_PLACEMENT_3D('',#474,#385,#386);
#328=AXIS2_PLACEMENT_3D('',#478,#389,#390);
#329=AXIS2_PLACEMENT_3D('',#482,#393,#394);
#330=AXIS2_PLACEMENT_3D('',#484,#396,#397);
#331=AXIS2_PLACEMENT_3D('',#485,#398,#399);
#332=AXIS2_PLACEMENT_3D('',#487,#401,#402);
#333=AXIS2_PLACEMENT_3D('',#489,#404,#405);
#334=AXIS2_PLACEMENT_3D('',#491,#407,#408);
#335=DIRECTION('axis',(0.,0.,1.));
#336=DIRECTION('refdir',(1.,0.,0.));
#337=DIRECTION('center_axis',(0.,0.,1.));
#338=DIRECTION('ref_axis',(1.,0.,0.));
#339=DIRECTION('',(1.,0.,0.));
#340=DIRECTION('',(0.,1.,0.));
#341=DIRECTION('',(1.,0.,0.));
#342=DIRECTION('',(0.,-1.,0.));
#343=DIRECTION('center_axis',(0.,1.,0.));
#344=DIRECTION('ref_axis',(0.,0.,1.));
#345=DIRECTION('',(0.,0.,1.));
#346=DIRECTION('',(1.,0.,0.));
#347=DIRECTION('',(0.,0.,1.));
#348=DIRECTION('',(-1.,0.,0.));
#349=DIRECTION('',(0.,0.,-1.));
#350=DIRECTION('',(1.,0.,0.));
#351=DIRECTION('',(0.,0.,-1.));
#352=DIRECTION('',(-1.,0.,0.));
#353=DIRECTION('',(0.,0.,1.));
#354=DIRECTION('',(1.,0.,0.));
#355=DIRECTION('',(0.,0.,-1.));
#356=DIRECTION('',(-1.,0.,0.));
#357=DIRECTION('center_axis',(0.,0.,-1.));
#358=DIRECTION('ref_axis',(-1.,0.,0.));
#359=DIRECTION('',(0.,1.,0.));
#360=DIRECTION('',(0.,1.,0.));
#361=DIRECTION('',(1.,0.,0.));
#362=DIRECTION('center_axis',(0.,0.,-1.));
#363=DIRECTION('ref_axis',(-1.,0.,0.));
#364=DIRECTION('',(0.,-1.,0.));
#365=DIRECTION('',(1.,0.,0.));
#366=DIRECTION('',(0.,-1.,0.));
#367=DIRECTION('center_axis',(1.,0.,0.));
#368=DIRECTION('ref_axis',(0.,1.,0.));
#369=DIRECTION('',(0.,1.,0.));
#370=DIRECTION('',(0.,0.,-1.));
#371=DIRECTION('center_axis',(-1.,0.,0.));
#372=DIRECTION('ref_axis',(0.,-1.,0.));
#373=DIRECTION('',(0.,-1.,0.));
#374=DIRECTION('',(0.,0.,1.));
#375=DIRECTION('center_axis',(0.,1.,0.));
#376=DIRECTION('ref_axis',(1.,0.,0.));
#377=DIRECTION('',(-1.,0.,0.));
#378=DIRECTION('',(0.,0.,-1.));
#379=DIRECTION('',(1.,0.,0.));
#380=DIRECTION('',(0.,0.,1.));
#381=DIRECTION('',(-1.,0.,0.));
#382=DIRECTION('center_axis',(0.,0.,-1.));
#383=DIRECTION('ref_axis',(-1.,0.,0.));
#384=DIRECTION('',(0.,1.,0.));
#385=DIRECTION('center_axis',(1.,0.,0.));
#386=DIRECTION('ref_axis',(0.,0.,-1.));
#387=DIRECTION('',(0.,0.,1.));
#388=DIRECTION('',(0.,-1.,0.));
#389=DIRECTION('center_axis',(0.,0.,1.));
#390=DIRECTION('ref_axis',(1.,0.,0.));
#391=DIRECTION('',(-1.,0.,0.));
#392=DIRECTION('',(0.,-1.,0.));
#393=DIRECTION('center_axis',(-1.,0.,0.));
#394=DIRECTION('ref_axis',(0.,0.,1.));
#395=DIRECTION('',(0.,0.,-1.));
#396=DIRECTION('center_axis',(0.,1.,0.));
#397=DIRECTION('ref_axis',(1.,0.,0.));
#398=DIRECTION('center_axis',(0.,0.,-1.));
#399=DIRECTION('ref_axis',(-1.,0.,0.));
#400=DIRECTION('',(0.,1.,0.));
#401=DIRECTION('center_axis',(1.,0.,0.));
#402=DIRECTION('ref_axis',(0.,0.,-1.));
#403=DIRECTION('',(0.,1.,0.));
#404=DIRECTION('center_axis',(0.,0.,1.));
#405=DIRECTION('ref_axis',(1.,0.,0.));
#406=DIRECTION('',(0.,1.,0.));
#407=DIRECTION('center_axis',(-1.,0.,0.));
#408=DIRECTION('ref_axis',(0.,0.,1.));
#409=CARTESIAN_POINT('',(0.,0.,0.));
#410=CARTESIAN_POINT('Origin',(14.4900001490116,4.00000005960464,-66.83));
#411=CARTESIAN_POINT('',(18.9800001490116,2.,-66.83));
#412=CARTESIAN_POINT('',(10.0000001490116,2.,-66.83));
#413=CARTESIAN_POINT('',(79.1475,2.,-66.83));
#414=CARTESIAN_POINT('',(18.9800001490116,0.,-66.83));
#415=CARTESIAN_POINT('',(18.9800001490116,0.,-66.83));
#416=CARTESIAN_POINT('',(10.0000001490116,0.,-66.83));
#417=CARTESIAN_POINT('',(33.6275000745058,0.,-66.83));
#418=CARTESIAN_POINT('',(10.0000001490116,8.00000011920929,-66.83));
#419=CARTESIAN_POINT('Origin',(52.765,8.,-34.415));
#420=CARTESIAN_POINT('',(18.9800001490116,8.00000011920929,-68.83));
#421=CARTESIAN_POINT('',(18.9800001490116,8.00000011920929,-66.83));
#422=CARTESIAN_POINT('',(18.9800001490116,8.,-51.6225));
#423=CARTESIAN_POINT('',(103.53,8.,-66.83));
#424=CARTESIAN_POINT('',(79.1475,8.,-66.83));
#425=CARTESIAN_POINT('',(103.53,8.,-2.));
#426=CARTESIAN_POINT('',(103.53,8.,-17.2075));
#427=CARTESIAN_POINT('',(2.,8.,-2.));
#428=CARTESIAN_POINT('',(26.3825,8.,-2.));
#429=CARTESIAN_POINT('',(2.,8.,-66.83));
#430=CARTESIAN_POINT('',(2.,8.,-51.6225));
#431=CARTESIAN_POINT('',(10.0000001490116,8.00000011920929,-66.83));
#432=CARTESIAN_POINT('',(79.1475,8.,-66.83));
#433=CARTESIAN_POINT('',(10.0000001490116,8.00000011920929,-68.83));
#434=CARTESIAN_POINT('',(10.0000001490116,8.,-51.6225));
#435=CARTESIAN_POINT('',(0.,8.,-68.83));
#436=CARTESIAN_POINT('',(105.53,8.,-68.83));
#437=CARTESIAN_POINT('',(0.,8.,0.));
#438=CARTESIAN_POINT('',(0.,8.,-68.83));
#439=CARTESIAN_POINT('',(105.53,8.,0.));
#440=CARTESIAN_POINT('',(0.,8.,0.));
#441=CARTESIAN_POINT('',(105.53,8.,-68.83));
#442=CARTESIAN_POINT('',(105.53,8.,0.));
#443=CARTESIAN_POINT('',(105.53,8.,-68.83));
#444=CARTESIAN_POINT('Origin',(105.53,0.,-66.83));
#445=CARTESIAN_POINT('',(10.0000001490116,4.00000005960464,-66.83));
#446=CARTESIAN_POINT('',(2.,2.,-66.83));
#447=CARTESIAN_POINT('',(2.,0.,-66.83));
#448=CARTESIAN_POINT('',(79.1475,2.,-66.83));
#449=CARTESIAN_POINT('Origin',(105.53,0.,-66.83));
#450=CARTESIAN_POINT('',(18.9800001490116,0.,-66.83));
#451=CARTESIAN_POINT('',(103.53,2.,-66.83));
#452=CARTESIAN_POINT('',(79.1475,2.,-66.83));
#453=CARTESIAN_POINT('',(103.53,0.,-66.83));
#454=CARTESIAN_POINT('Origin',(18.9800001490116,0.,-68.83));
#455=CARTESIAN_POINT('',(18.9800001490116,0.,-68.83));
#456=CARTESIAN_POINT('',(18.9800001490116,0.,-68.83));
#457=CARTESIAN_POINT('',(18.9800001490116,0.,-51.6225));
#458=CARTESIAN_POINT('Origin',(10.0000001490116,8.00000011920929,-68.83));
#459=CARTESIAN_POINT('',(10.0000001490116,0.,-68.83));
#460=CARTESIAN_POINT('',(10.0000001490116,4.00000005960464,-68.83));
#461=CARTESIAN_POINT('',(10.0000001490116,0.,-51.6225));
#462=CARTESIAN_POINT('Origin',(52.765,0.,-34.415));
#463=CARTESIAN_POINT('',(105.53,0.,-68.83));
#464=CARTESIAN_POINT('',(105.53,0.,-68.83));
#465=CARTESIAN_POINT('',(105.53,0.,0.));
#466=CARTESIAN_POINT('',(105.53,0.,0.));
#467=CARTESIAN_POINT('',(0.,0.,0.));
#468=CARTESIAN_POINT('',(0.,0.,0.));
#469=CARTESIAN_POINT('',(0.,0.,-68.83));
#470=CARTESIAN_POINT('',(0.,0.,-68.83));
#471=CARTESIAN_POINT('',(105.53,0.,-68.83));
#472=CARTESIAN_POINT('Origin',(105.53,0.,-68.83));
#473=CARTESIAN_POINT('',(105.53,0.,-68.83));
#474=CARTESIAN_POINT('Origin',(103.53,0.,0.));
#475=CARTESIAN_POINT('',(103.53,2.,-2.));
#476=CARTESIAN_POINT('',(103.53,2.,-17.2075));
#477=CARTESIAN_POINT('',(103.53,0.,-2.));
#478=CARTESIAN_POINT('Origin',(0.,0.,-2.));
#479=CARTESIAN_POINT('',(2.,2.,-2.));
#480=CARTESIAN_POINT('',(26.3825,2.,-2.));
#481=CARTESIAN_POINT('',(2.,0.,-2.));
#482=CARTESIAN_POINT('Origin',(2.,0.,-68.83));
#483=CARTESIAN_POINT('',(2.,2.,-51.6225));
#484=CARTESIAN_POINT('Origin',(52.765,2.,-34.415));
#485=CARTESIAN_POINT('Origin',(105.53,0.,-68.83));
#486=CARTESIAN_POINT('',(0.,0.,-68.83));
#487=CARTESIAN_POINT('Origin',(105.53,0.,0.));
#488=CARTESIAN_POINT('',(105.53,0.,0.));
#489=CARTESIAN_POINT('Origin',(0.,0.,0.));
#490=CARTESIAN_POINT('',(0.,0.,0.));
#491=CARTESIAN_POINT('Origin',(0.,0.,-68.83));
#492=UNCERTAINTY_MEASURE_WITH_UNIT(LENGTH_MEASURE(0.01),#496,
'DISTANCE_ACCURACY_VALUE',
'Maximum model space distance between geometric entities at asserted c
onnectivities');
#493=UNCERTAINTY_MEASURE_WITH_UNIT(LENGTH_MEASURE(0.01),#496,
'DISTANCE_ACCURACY_VALUE',
'Maximum model space distance between geometric entities at asserted c
onnectivities');
#494=(
GEOMETRIC_REPRESENTATION_CONTEXT(3)
GLOBAL_UNCERTAINTY_ASSIGNED_CONTEXT((#492))
GLOBAL_UNIT_ASSIGNED_CONTEXT((#496,#498,#499))
REPRESENTATION_CONTEXT('','3D')
);
#495=(
GEOMETRIC_REPRESENTATION_CONTEXT(3)
GLOBAL_UNCERTAINTY_ASSIGNED_CONTEXT((#493))
GLOBAL_UNIT_ASSIGNED_CONTEXT((#496,#498,#499))
REPRESENTATION_CONTEXT('','3D')
);
#496=(
LENGTH_UNIT()
NAMED_UNIT(*)
SI_UNIT(.MILLI.,.METRE.)
);
#497=(
LENGTH_UNIT()
NAMED_UNIT(*)
SI_UNIT($,.METRE.)
);
#498=(
NAMED_UNIT(*)
PLANE_ANGLE_UNIT()
SI_UNIT($,.RADIAN.)
);
#499=(
NAMED_UNIT(*)
SI_UNIT($,.STERADIAN.)
SOLID_ANGLE_UNIT()
);
#500=SHAPE_DEFINITION_REPRESENTATION(#501,#502);
#501=PRODUCT_DEFINITION_SHAPE('',$,#504);
#502=SHAPE_REPRESENTATION('',(#318),#494);
#503=PRODUCT_DEFINITION_CONTEXT('part definition',#508,'design');
#504=PRODUCT_DEFINITION('2026-08-24-23-11-42-769','suffering',#505,#503);
#505=PRODUCT_DEFINITION_FORMATION('',$,#510);
#506=PRODUCT_RELATED_PRODUCT_CATEGORY('suffering','suffering',(#510));
#507=APPLICATION_PROTOCOL_DEFINITION('international standard',
'automotive_design',2009,#508);
#508=APPLICATION_CONTEXT(
'Core Data for Automotive Mechanical Design Process');
#509=PRODUCT_CONTEXT('part definition',#508,'mechanical');
#510=PRODUCT('2026-08-24-23-11-42-769','suffering',$,(#509));
#511=PRESENTATION_STYLE_ASSIGNMENT((#512));
#512=SURFACE_STYLE_USAGE(.BOTH.,#513);
#513=SURFACE_SIDE_STYLE('',(#514));
#514=SURFACE_STYLE_FILL_AREA(#515);
#515=FILL_AREA_STYLE('Steel - Satin',(#516));
#516=FILL_AREA_STYLE_COLOUR('Steel - Satin',#517);
#517=COLOUR_RGB('Steel - Satin',0.627450980392157,0.627450980392157,0.627450980392157);
ENDSEC;
END-ISO-10303-21;
